<?xml version="1.0" standalone="no"?>
<!DOCTYPE svg PUBLIC "-//W3C//DTD SVG 20010904//EN"
 "http://www.w3.org/TR/2001/REC-SVG-20010904/DTD/svg10.dtd">
<svg version="1.0" xmlns="http://www.w3.org/2000/svg"
 width="1280.000000pt" height="1279.000000pt" viewBox="0 0 1280.000000 1279.000000"
 preserveAspectRatio="xMidYMid meet">
<metadata>
Created by potrace 1.15, written by Peter Selinger 2001-2017
</metadata>
<g transform="translate(0.000000,1279.000000) scale(0.100000,-0.100000)"
fill="#ff5722" stroke="none">
<path d="M6265 11116 c-74 -19 -113 -38 -182 -89 -115 -86 -189 -196 -248
-371 -57 -169 -67 -171 -158 -36 -70 104 -187 217 -274 263 -204 107 -369 84
-518 -74 -115 -122 -162 -249 -172 -461 -3 -70 -9 -132 -13 -138 -11 -18 -66
10 -150 79 -205 167 -434 219 -606 140 -63 -29 -161 -129 -197 -199 -72 -146
-73 -362 -3 -559 20 -55 21 -101 2 -101 -8 0 -70 20 -138 44 -156 55 -213 67
-318 67 -151 0 -274 -56 -353 -160 -56 -73 -77 -142 -77 -253 0 -127 20 -201
97 -356 46 -91 63 -136 56 -143 -7 -7 -62 -3 -174 12 -144 19 -175 20 -252 10
-146 -19 -253 -68 -334 -151 -115 -119 -137 -259 -69 -445 34 -95 81 -166 174
-267 111 -121 110 -126 -18 -147 -255 -41 -316 -60 -427 -132 -122 -80 -203
-199 -211 -309 -15 -207 146 -434 406 -570 35 -18 67 -41 73 -51 12 -23 -24
-49 -139 -98 -150 -64 -246 -134 -334 -242 -118 -147 -119 -320 -3 -478 85
-116 249 -216 428 -262 48 -12 95 -27 104 -34 26 -19 3 -46 -102 -120 -131
-93 -224 -195 -278 -303 -41 -84 -42 -87 -42 -191 0 -102 1 -109 34 -169 62
-115 202 -215 356 -257 33 -9 118 -18 190 -21 205 -8 207 -9 117 -106 -192
-207 -271 -392 -243 -567 33 -204 182 -331 425 -362 72 -10 91 -8 166 11 47
11 95 24 108 27 31 8 29 -18 -9 -142 -27 -85 -31 -116 -32 -210 0 -89 4 -121
21 -170 49 -133 146 -225 276 -260 50 -14 88 -16 168 -12 121 6 210 33 333
103 44 25 92 48 108 51 25 5 27 3 27 -26 0 -17 -12 -75 -26 -128 -46 -174 -34
-360 33 -501 38 -81 142 -183 214 -210 120 -45 233 -37 373 27 83 37 141 78
241 167 94 83 122 101 138 85 6 -6 14 -63 18 -126 14 -205 71 -353 182 -472
132 -140 286 -167 461 -81 127 62 227 158 329 314 78 120 101 144 122 123 7
-8 29 -58 49 -112 45 -127 109 -228 194 -308 187 -176 377 -177 563 -2 83 79
129 146 181 266 86 200 95 209 138 137 84 -137 128 -195 193 -257 82 -78 152
-121 244 -152 268 -90 525 133 573 497 27 206 30 222 52 222 11 0 50 -28 86
-61 88 -82 194 -150 289 -185 67 -25 92 -29 183 -29 144 0 202 26 296 134 69
78 84 105 115 205 24 79 20 267 -9 381 -11 44 -23 104 -27 133 -7 50 -6 52 18
52 13 0 62 -18 108 -39 235 -110 451 -107 602 10 107 82 151 180 151 339 0
120 -12 171 -80 327 -46 106 -56 163 -29 163 8 0 59 -11 112 -25 131 -34 256
-42 353 -21 165 35 302 131 362 254 30 61 33 74 32 162 0 105 -14 160 -70 271
-37 74 -139 207 -179 233 -14 9 -33 33 -43 52 -16 34 -16 37 1 48 9 7 56 16
104 20 121 9 204 31 302 79 106 53 205 142 252 229 32 60 34 68 34 164 0 99
-1 102 -43 188 -72 144 -189 255 -366 345 -68 35 -90 61 -69 82 5 5 55 26 110
47 56 21 135 60 176 85 97 61 205 175 248 263 31 63 34 76 34 159 0 84 -3 96
-35 160 -43 85 -133 178 -226 233 -73 44 -218 96 -296 107 -94 14 -87 43 26
118 207 138 318 276 363 450 57 223 -97 428 -382 508 -77 22 -181 26 -380 16
-59 -3 -57 22 8 90 166 177 247 345 247 512 0 144 -50 244 -159 318 -134 92
-356 120 -498 62 -57 -23 -56 -10 8 166 31 85 33 98 33 225 1 114 -3 143 -20
186 -32 78 -78 138 -136 177 -86 56 -138 71 -263 71 -161 0 -270 -35 -435
-137 -94 -59 -114 -61 -108 -9 3 20 17 78 32 127 90 297 -6 606 -217 701 -126
56 -285 40 -447 -47 -88 -48 -142 -90 -225 -175 -68 -69 -109 -99 -125 -89 -6
4 -10 49 -10 110 0 230 -66 404 -201 529 -73 68 -143 96 -240 96 -180 0 -376
-131 -512 -342 -57 -88 -83 -113 -105 -99 -6 4 -23 51 -37 105 -13 54 -42 135
-64 180 -115 236 -336 378 -516 332z"/>
</g>
</svg>
