<svg width="1279" height="209" viewBox="0 0 1279 209" fill="none" xmlns="http://www.w3.org/2000/svg">
<path d="M135.211 150.555C140.219 39.5547 0 28.2281 0 28.2281V209H1279V3.76275C1180.85 -20.7026 1180.85 82.1426 1180.85 82.1426C1133.77 66.2854 1116.75 106.608 1116.75 106.608C1061.86 38.8297 1000.06 78.367 976.026 106.608C974.023 69.638 935.797 56.771 916.934 54.9588C852.834 -32.0292 776.214 54.9588 776.214 54.9588C716.921 42.273 695.755 84.1058 692.583 106.608C637.297 96.0968 603.777 131.526 593.929 150.555C583.913 99.812 527.325 119.747 527.325 119.747C460.42 35.6583 390.945 84.7099 364.57 119.747C326.911 108.873 296.464 135.755 285.947 150.555C227.055 98.3622 160.918 128.808 135.211 150.555Z" fill="#EDE99F"/>
</svg>
