<svg width="1280" height="97" viewBox="0 0 1280 97" fill="none" xmlns="http://www.w3.org/2000/svg">
<path fill-rule="evenodd" clip-rule="evenodd" d="M1199.9 0C1155.7 0 1119.87 35.7899 1119.8 79.9668C1119.72 35.7953 1083.88 0.0115108 1039.69 0.0115108C998.304 0.0115108 964.246 31.4044 960.032 71.6788C955.817 31.4044 921.759 0.0115108 880.368 0.0115108C836.163 0.0115108 800.32 35.8204 800.267 80.0136C800.213 35.8204 764.371 0.0115108 720.165 0.0115108C675.959 0.0115108 640.117 35.8204 640.063 80.0136C640.009 35.8204 604.167 0.0115108 559.961 0.0115108C515.722 0.0115108 479.859 35.8743 479.859 80.1134L479.859 79.7373C479.859 35.706 444.165 0.0115108 400.134 0.0115108C356.102 0.0115108 320.408 35.706 320.408 79.7373V97L479.859 97L640.063 97L800.267 97L959.593 97H960.47L1119.8 97L1119.8 96.9885L1280 96.9885V80.1019C1280 35.8628 1244.14 0 1199.9 0ZM80.1019 0.0115108C35.8628 0.0115108 0 35.8743 0 80.1134L0 97L160.203 97H160.204L320.407 97V80.1134C320.407 35.8743 284.544 0.0115108 240.305 0.0115108C196.142 0.0115108 160.327 35.7507 160.203 79.8844C160.08 35.7507 124.265 0.0115108 80.1019 0.0115108Z" fill="#E8D8FF"/>
</svg>
