<svg width="1280" height="97" viewBox="0 0 1280 97" fill="none" xmlns="http://www.w3.org/2000/svg">
<path fill-rule="evenodd" clip-rule="evenodd" d="M80.1018 97C124.296 97 160.131 61.2102 160.204 17.0332C160.283 61.2048 196.115 96.9885 240.305 96.9885C281.696 96.9885 315.754 65.5957 319.968 25.3213C324.183 65.5957 358.241 96.9885 399.632 96.9885C443.837 96.9885 479.68 61.1796 479.733 16.9864C479.787 61.1796 515.629 96.9885 559.835 96.9885C604.041 96.9886 639.883 61.1797 639.937 16.9865C639.991 61.1796 675.833 96.9886 720.039 96.9886C764.278 96.9886 800.141 61.1258 800.141 16.8867L800.141 17.2628C800.141 61.2941 835.835 96.9886 879.866 96.9886C923.898 96.9886 959.592 61.2941 959.592 17.2628L959.592 9.40594e-05L800.141 8.01197e-05L639.937 6.61142e-05L479.733 5.21088e-05L320.407 3.818e-05L319.53 3.81033e-05L160.203 2.41746e-05L160.204 0.0115369L8.479e-06 0.0115229L7.00273e-06 16.8981C3.13523e-06 61.1372 35.8628 97 80.1018 97ZM1199.9 96.9886C1244.14 96.9886 1280 61.1258 1280 16.8867L1280 0.00012207L1119.8 0.000108065L1119.8 0.000108065L959.593 9.40595e-05L959.593 16.8867C959.593 61.1258 995.456 96.9886 1039.69 96.9886C1083.86 96.9886 1119.67 61.2494 1119.8 17.1157C1119.92 61.2494 1155.74 96.9886 1199.9 96.9886Z" fill="#EDE99F"/>
</svg>
