<svg width="1004" height="300" viewBox="0 0 1004 300" fill="none" xmlns="http://www.w3.org/2000/svg">
<path d="M296.428 40.8783C-6.98955 15.752 -63.2624 143.668 63.1619 172.22C63.1619 238.385 148.135 225.518 148.135 225.518C191.849 252.167 220.086 222.346 230.448 225.518C230.448 324.523 445.65 310.224 491.245 266.444C554.25 292.331 604.543 267.713 621.815 252.167C699.742 303.943 869.728 246.457 853.148 225.518C1051.26 213.344 1061.19 103.694 841.502 96.08C861.398 28.3152 744.784 27.2365 683.99 35.1678C606.063 -21.9374 492.627 3.12543 445.65 22.795C344.511 0.714321 304.027 25.6503 296.428 40.8783Z" fill="white"/>
</svg>
