<?xml version="1.0" standalone="no"?>
<!DOCTYPE svg PUBLIC "-//W3C//DTD SVG 20010904//EN"
 "http://www.w3.org/TR/2001/REC-SVG-20010904/DTD/svg10.dtd">
<svg version="1.0" xmlns="http://www.w3.org/2000/svg"
 width="1280.000000pt" height="716.000000pt" viewBox="0 0 1280.000000 716.000000"
 preserveAspectRatio="xMidYMid meet">
<metadata>
Created by potrace 1.15, written by Peter Selinger 2001-2017
</metadata>
<g transform="translate(0.000000,716.000000) scale(0.100000,-0.100000)"
fill="#f44336" stroke="none">
<path d="M6770 6606 c-19 -19 -43 -27 -99 -35 -43 -6 -85 -18 -100 -28 -30
-23 -49 -73 -50 -130 -1 -24 -3 -43 -5 -43 -3 0 -20 9 -38 19 -74 43 -137 35
-218 -29 -21 -17 -53 -33 -72 -36 -46 -9 -60 -22 -48 -44 19 -36 183 -80 296
-80 30 0 54 -4 54 -9 0 -5 -11 -34 -25 -66 -59 -133 -93 -303 -63 -321 7 -4
23 6 39 26 15 18 56 51 91 74 80 52 111 105 106 184 -2 28 -2 52 -2 52 1 0 21
-9 45 -20 52 -23 116 -26 146 -5 11 8 33 35 47 59 l26 45 40 -14 c21 -8 66
-19 100 -26 33 -6 60 -13 60 -16 0 -2 -23 -42 -50 -88 -63 -103 -100 -193
-100 -240 0 -32 -2 -35 -24 -29 -18 4 -28 0 -38 -15 -7 -12 -18 -21 -24 -21
-21 0 -52 -46 -59 -85 -3 -22 -8 -51 -11 -63 l-5 -24 -21 27 c-29 37 -93 65
-148 65 -53 0 -134 -35 -170 -74 l-25 -28 41 -38 c45 -41 80 -55 188 -70 39
-6 72 -12 74 -15 3 -2 -15 -26 -38 -52 -106 -121 -151 -273 -80 -273 38 0 133
43 171 77 41 37 69 106 69 169 l0 33 58 -40 c51 -35 61 -39 86 -30 15 6 39 11
53 11 16 0 27 7 30 20 3 10 14 22 24 25 17 6 39 59 39 97 0 31 -58 52 -143 52
l-78 0 59 60 c87 89 105 138 59 155 -65 25 -49 66 40 101 94 37 129 77 148
167 l11 53 31 -23 c29 -20 32 -26 26 -59 -4 -30 -1 -41 20 -62 23 -23 34 -26
98 -26 64 0 70 -2 64 -17 -4 -10 -12 -44 -17 -75 -15 -74 4 -108 58 -108 69 0
122 37 166 119 9 17 21 31 25 31 4 -1 23 -25 42 -55 59 -92 117 -98 156 -14
16 36 38 61 78 89 30 22 57 47 61 55 7 18 -5 45 -28 65 -20 16 -20 44 -1 60
15 12 35 72 41 120 2 14 6 36 9 49 4 14 -1 33 -11 48 -14 22 -22 25 -58 21
-23 -3 -60 -13 -81 -24 -50 -23 -136 -108 -163 -159 l-19 -39 -16 31 c-14 27
-14 35 -1 78 20 67 18 151 -6 203 -27 59 -59 58 -128 -6 -42 -39 -55 -46 -73
-40 -42 16 -81 -15 -77 -59 5 -63 2 -66 -62 -61 -33 2 -65 9 -71 15 -17 17 30
91 85 137 52 42 101 118 92 142 -6 15 -9 14 -34 -2 -19 -14 -53 -20 -121 -24
-86 -5 -95 -8 -117 -33 -13 -15 -31 -52 -39 -82 l-16 -54 -44 31 c-60 42 -110
42 -198 0 -36 -18 -79 -32 -96 -32 -17 0 -34 -7 -39 -16 -7 -13 -19 -16 -52
-11 -23 3 -44 8 -47 10 -13 14 14 75 60 135 57 76 90 143 81 166 -8 22 -15 20
-44 -8z m-1 -33 c-7 -10 -27 -34 -44 -54 -16 -20 -52 -71 -78 -114 -27 -42
-51 -74 -54 -71 -8 8 24 93 52 142 15 25 48 59 78 79 59 40 65 42 46 18z
m-144 -77 c-18 -24 -31 -58 -39 -106 -13 -81 -26 -82 -26 -2 0 64 23 118 59
136 36 19 37 13 6 -28z m707 -105 c-59 -60 -109 -108 -111 -106 -6 6 39 87 71
127 23 30 113 86 140 88 3 0 -42 -49 -100 -109z m-59 36 c-23 -25 -44 -61 -52
-90 -19 -68 -36 -73 -28 -8 7 59 36 113 69 129 46 22 50 11 11 -31z m-840 -57
c29 -23 72 -79 65 -85 -2 -3 -29 20 -58 50 -54 54 -57 74 -7 35z m674 -73 c8
-16 13 -32 11 -37 -4 -10 -64 67 -74 95 -6 17 -3 17 20 -5 16 -14 34 -38 43
-53z m-710 28 c28 -15 57 -33 65 -42 11 -14 10 -15 -12 -9 -37 11 -150 64
-150 70 0 14 51 4 97 -19z m627 -16 c25 -17 51 -40 57 -51 10 -19 10 -19 -28
0 -21 11 -48 28 -60 39 -12 10 -30 23 -40 30 -17 11 -17 12 3 12 11 1 42 -13
68 -30z m-654 -29 c55 -13 100 -30 100 -39 0 -11 -129 5 -193 24 -31 9 -57 18
-57 21 0 8 105 3 150 -6z m670 -36 c30 -15 49 -29 42 -31 -19 -7 -153 37 -146
48 9 16 48 9 104 -17z m-210 6 c19 -12 10 -20 -33 -27 -45 -7 -152 6 -141 17
8 8 37 12 134 18 14 1 32 -2 40 -8z m-42 -67 c51 6 53 1 9 -18 -40 -17 -91 -7
-136 24 -17 13 -31 24 -31 25 0 2 26 -6 58 -17 36 -12 72 -17 100 -14z m635
-9 c24 -7 21 -21 -5 -28 -29 -7 -159 24 -152 36 6 9 117 3 157 -8z m-833 -74
c14 -59 7 -92 -8 -35 -20 79 -23 97 -13 91 5 -3 14 -28 21 -56z m714 30 c39
-20 53 -32 43 -36 -18 -7 -65 16 -91 45 -24 27 -22 27 48 -9z m-760 -95 c-4
-27 -10 -59 -15 -70 -10 -26 -12 58 -2 135 7 55 7 55 15 20 4 -19 5 -57 2 -85z
m-43 27 c-14 -57 -52 -154 -58 -148 -5 5 23 118 45 175 20 54 28 37 13 -27z
m599 1 c-16 -47 -53 -121 -75 -148 -16 -20 -16 -19 -9 5 9 35 86 191 92 186 2
-3 -2 -22 -8 -43z m36 -7 c-5 -50 -30 -126 -41 -126 -2 0 -2 15 1 33 9 52 36
147 42 147 2 0 2 -24 -2 -54z m43 -14 c-1 -47 -3 -52 -9 -27 -12 45 -12 97 0
90 6 -3 9 -32 9 -63z"/>
<path d="M1954 6609 c-3 -6 -15 -8 -25 -6 -14 4 -25 -3 -37 -21 -9 -15 -25
-35 -35 -45 -15 -15 -18 -31 -15 -83 3 -67 -1 -75 -23 -47 -8 9 -31 24 -53 34
-49 22 -87 12 -137 -37 l-37 -36 -12 37 c-14 43 -62 100 -99 120 -14 7 -49 16
-76 20 -28 4 -67 18 -89 32 -113 73 -40 -103 112 -268 l49 -54 -86 -41 c-178
-85 -280 -207 -155 -187 18 3 64 -2 103 -12 67 -16 71 -16 114 3 28 13 55 34
69 56 13 20 25 36 28 36 3 0 13 -19 23 -43 34 -80 84 -121 144 -115 31 2 38 0
41 -17 9 -57 13 -65 35 -65 27 0 110 62 151 113 27 34 31 47 31 100 0 34 -3
76 -7 94 l-7 32 56 -20 c70 -24 86 -24 107 0 10 11 28 21 39 23 12 2 23 12 25
23 2 11 10 27 17 35 15 16 18 89 5 110 -14 23 -83 23 -156 -2 l-70 -23 43 80
c55 102 58 165 8 165 -13 0 -27 5 -30 10 -8 13 -42 13 -51 -1z m-513 -218 c27
-40 49 -79 49 -85 -1 -28 -160 178 -160 207 0 21 63 -49 111 -122z m42 21 c31
-85 16 -89 -24 -7 -21 44 -38 87 -38 95 0 25 44 -37 62 -88z m54 -29 c5 -86
-12 -65 -21 27 -4 47 -3 61 5 53 6 -6 13 -42 16 -80z m291 -171 c-1 -4 -11
-28 -22 -55 -10 -26 -23 -47 -28 -47 -14 0 -94 78 -87 85 15 14 143 31 137 17z
m-384 -23 c-22 -25 -105 -79 -149 -97 l-30 -12 35 31 c30 25 146 98 159 99 2
0 -4 -10 -15 -21z m22 -26 c-14 -27 -60 -74 -101 -103 -20 -15 -20 -15 0 10
23 30 108 120 112 120 2 0 -3 -12 -11 -27z m20 -59 c-15 -31 -29 -54 -32 -51
-3 3 6 31 20 63 15 31 29 54 32 51 3 -3 -6 -31 -20 -63z m192 -62 c34 -35 38
-42 20 -37 -34 11 -68 45 -89 90 -27 58 -23 91 4 35 12 -25 41 -65 65 -88z
m30 63 c59 -53 71 -86 23 -61 -26 14 -111 105 -111 120 0 12 36 -12 88 -59z"/>
<path d="M8364 6515 c-24 -36 -15 -127 19 -196 15 -31 49 -78 76 -106 l50 -50
-70 -12 c-156 -28 -294 -142 -251 -207 10 -16 107 -44 151 -44 l36 0 -28 -25
c-33 -32 -34 -55 -3 -84 18 -17 25 -36 29 -81 6 -66 42 -153 87 -209 l29 -38
-82 -6 c-145 -9 -273 -79 -265 -145 5 -44 117 -90 235 -97 61 -4 62 -4 82 29
12 18 21 41 21 50 0 9 5 16 10 16 6 0 10 -10 10 -23 0 -30 44 -94 78 -111 47
-25 116 -30 135 -11 32 32 32 64 -1 131 -29 58 -30 64 -13 64 10 0 24 -7 32
-16 7 -8 25 -22 39 -29 23 -12 31 -12 56 1 37 19 41 28 49 89 12 90 8 87 81
53 97 -45 144 -25 144 61 0 76 -52 135 -139 157 l-45 11 39 13 c22 7 52 21 67
32 26 18 27 22 22 81 -4 34 -10 66 -15 72 -5 5 -9 18 -10 30 0 11 -13 43 -28
70 -26 47 -29 50 -68 50 -46 0 -73 18 -73 49 0 12 -5 27 -12 34 -9 9 -7 17 9
34 40 44 39 66 -7 108 -67 62 -116 62 -232 2 -4 -2 4 22 18 52 28 62 28 84 0
100 -11 6 -31 23 -44 39 -13 15 -30 27 -37 27 -7 0 -18 7 -25 15 -7 8 -27 17
-46 21 -19 3 -37 10 -40 15 -11 19 -54 9 -70 -16z m176 -520 c0 -8 16 -33 36
-55 l36 -39 -54 6 c-29 3 -54 7 -56 8 -1 1 3 23 10 49 12 44 28 62 28 31z"/>
<path d="M3400 6515 c-18 -22 -6 -198 15 -228 8 -12 15 -32 15 -44 0 -29 27
-43 87 -43 l48 -1 -27 -22 c-14 -12 -36 -42 -49 -66 -21 -40 -22 -49 -11 -99
15 -70 26 -82 74 -82 40 0 52 9 116 89 l19 24 41 -60 c23 -33 48 -63 57 -67
53 -20 89 6 114 81 18 53 1 112 -47 165 -28 31 -32 39 -17 35 82 -24 145 -14
145 24 0 11 9 32 20 46 11 14 20 36 20 48 0 12 3 25 8 29 4 4 8 17 9 29 8 104
7 109 -12 123 -28 21 -65 17 -124 -12 -66 -33 -138 -105 -172 -172 l-27 -51
-31 63 c-38 77 -110 160 -162 186 -46 24 -92 26 -109 5z"/>
<path d="M2665 6407 c-57 -57 -82 -199 -54 -300 6 -22 9 -41 7 -43 -2 -2 -32
8 -67 22 -129 52 -262 52 -308 -2 -29 -32 -29 -37 3 -71 15 -15 33 -38 41 -50
9 -13 21 -23 27 -23 7 0 22 -11 34 -25 12 -14 30 -25 40 -25 11 0 27 -9 37
-20 10 -11 24 -20 30 -20 7 0 24 9 38 20 14 11 27 20 30 20 2 0 -2 -24 -10
-52 -7 -29 -16 -106 -20 -171 -5 -103 -8 -117 -22 -111 -9 4 -43 17 -76 30
-33 12 -82 34 -108 49 -62 35 -123 30 -179 -16 l-38 -30 5 53 c3 29 2 58 -2
64 -10 13 -89 50 -123 57 -64 15 -132 17 -146 6 -8 -6 -14 -29 -14 -53 0 -72
76 -168 170 -216 22 -11 40 -22 40 -25 0 -2 -21 -13 -47 -25 -27 -11 -64 -34
-84 -50 -30 -24 -42 -28 -75 -23 -52 7 -64 -9 -67 -86 -1 -33 -6 -61 -11 -61
-5 0 -38 5 -73 11 -60 10 -108 6 -164 -16 -11 -4 -13 4 -11 39 5 64 -26 128
-79 163 -24 15 -62 47 -85 71 -23 23 -46 42 -53 42 -34 0 -14 -145 39 -291
l29 -79 -59 0 c-80 0 -205 -18 -252 -37 -51 -20 -51 -47 0 -63 20 -7 61 -31
90 -53 67 -51 127 -60 190 -28 23 12 43 21 44 21 2 0 4 -22 5 -49 2 -60 24
-115 55 -135 13 -9 53 -20 88 -24 51 -7 68 -15 87 -36 13 -15 28 -24 33 -21
23 14 8 67 -39 140 -53 80 -76 137 -67 160 8 21 58 19 146 -6 103 -29 122 -37
114 -50 -3 -6 -6 -37 -5 -68 1 -60 22 -91 62 -91 25 0 24 -15 -1 -40 -11 -11
-20 -27 -20 -35 0 -27 67 -90 132 -121 57 -29 69 -31 121 -25 31 4 57 6 57 5
0 -1 -17 -28 -39 -60 -21 -33 -44 -76 -52 -96 l-13 -37 -38 34 c-44 41 -76 44
-154 17 l-51 -18 5 42 c7 67 -28 129 -92 162 -28 15 -68 44 -88 66 -50 52 -68
44 -68 -28 0 -55 38 -204 66 -258 8 -16 14 -32 11 -34 -2 -2 -55 -8 -118 -14
-125 -11 -186 -23 -229 -45 -38 -19 -43 -30 -26 -48 13 -13 12 -16 -11 -26
-24 -11 -25 -10 -18 11 4 13 9 64 12 113 4 76 2 99 -17 147 -21 58 -50 88 -81
88 -19 0 -99 -99 -99 -122 0 -9 -7 -21 -15 -28 -8 -7 -15 -25 -15 -41 0 -15
-4 -31 -10 -34 -21 -13 -9 -44 30 -79 36 -32 38 -36 18 -36 -13 0 -46 -11 -74
-24 -43 -20 -54 -31 -72 -74 -28 -64 -27 -76 0 -103 24 -21 55 -22 146 -3 l32
7 0 -72 c0 -64 3 -75 25 -97 16 -15 32 -23 41 -20 56 21 61 20 67 -26 3 -24 9
-59 12 -79 l7 -35 -73 8 c-127 15 -289 -9 -289 -42 0 -6 14 -19 32 -28 17 -9
57 -40 89 -69 79 -71 108 -76 216 -36 8 3 11 -16 11 -64 -1 -38 4 -78 10 -89
10 -18 5 -23 -41 -48 -29 -15 -68 -40 -87 -56 -31 -25 -34 -31 -25 -57 13 -35
102 -83 157 -83 39 0 46 -8 27 -27 -16 -16 7 -78 45 -122 21 -23 37 -55 44
-91 13 -54 35 -90 57 -90 6 0 29 13 51 30 21 16 52 30 67 30 28 0 26 -2 -35
-62 -36 -35 -77 -84 -92 -111 -22 -38 -41 -54 -88 -77 -41 -20 -60 -26 -63
-17 -2 7 -6 50 -9 97 -6 96 -27 177 -55 211 -16 20 -21 21 -35 10 -9 -7 -16
-23 -16 -35 0 -11 -18 -50 -40 -86 -50 -81 -54 -135 -15 -193 l26 -37 -24 0
c-43 0 -123 -29 -146 -53 -16 -18 -24 -43 -30 -97 -6 -57 -12 -77 -29 -91 -32
-25 -27 -39 12 -39 22 0 45 9 63 24 54 45 156 106 178 106 31 0 39 -48 20
-125 -17 -71 -19 -129 -5 -156 16 -28 27 -23 40 16 8 25 25 44 53 62 23 14 57
39 75 56 37 35 42 74 17 134 -8 19 -15 37 -15 38 0 1 23 6 52 9 63 9 93 24
136 70 19 20 40 36 47 36 7 0 26 10 42 23 15 12 37 27 48 33 22 12 27 67 11
113 l-8 24 29 -21 c17 -12 48 -25 71 -30 34 -8 49 -6 96 16 93 42 91 107 -4
154 -35 18 -44 25 -25 21 37 -9 129 -6 214 6 9 1 26 40 36 85 l6 29 19 -30
c10 -17 34 -42 53 -57 28 -21 45 -26 95 -26 72 0 92 15 92 67 0 27 -10 47 -41
85 -23 27 -38 53 -33 57 5 4 30 15 55 25 53 19 74 39 84 79 6 23 2 32 -31 62
-60 55 -136 59 -208 10 -41 -28 -41 -27 -21 22 28 67 21 88 -48 153 -66 61
-110 119 -121 157 -6 19 -2 23 29 32 21 5 82 7 140 4 87 -5 108 -3 129 11 34
22 33 32 -6 40 -22 4 -51 27 -93 71 -55 59 -64 65 -100 65 -22 0 -64 -11 -92
-25 l-53 -24 0 38 c0 57 -25 107 -67 136 l-38 25 35 -6 c20 -3 45 -18 58 -33
19 -22 24 -24 32 -11 19 29 10 64 -31 117 -53 71 -93 148 -86 168 8 20 92 20
189 0 88 -19 118 -13 163 30 19 19 43 39 55 45 11 6 20 16 20 22 0 7 12 22 27
34 l28 22 -23 47 c-19 39 -20 46 -7 41 70 -26 124 -15 178 39 53 54 21 108
-70 120 -29 4 -53 10 -53 13 0 15 16 30 35 33 17 4 20 11 18 57 -1 30 -9 64
-17 77 -9 14 -16 38 -16 54 0 45 -19 79 -58 101 l-34 21 26 26 c14 14 26 35
26 46 0 18 7 14 45 -23 39 -38 51 -44 97 -48 34 -2 67 1 88 10 l35 15 0 -78
c0 -103 17 -126 111 -155 53 -15 73 -27 84 -47 17 -30 35 -35 44 -11 11 28 7
46 -34 145 -44 107 -52 168 -22 171 37 3 67 -4 138 -33 80 -31 123 -36 142
-17 10 10 6 18 -19 38 -33 28 -97 172 -79 178 6 2 -2 19 -18 37 -23 25 -31 46
-36 96 -13 109 -50 149 -141 149 -25 0 -45 2 -45 4 0 2 7 19 15 39 8 19 16 50
17 67 3 40 20 48 46 22 32 -32 134 -42 256 -26 43 6 50 11 62 40 8 18 14 48
14 66 l1 33 19 -36 c10 -20 35 -48 55 -63 88 -68 223 -29 201 57 -3 14 -24 47
-46 72 -22 25 -40 48 -40 50 0 2 29 17 64 33 68 32 89 57 84 100 -4 31 -65 77
-115 87 -41 7 -102 -9 -137 -36 -30 -23 -32 -16 -11 34 8 20 15 50 15 67 0 25
-5 33 -29 41 -16 6 -32 17 -35 24 -6 16 -73 51 -119 61 -17 3 -39 11 -49 18
-13 7 -26 8 -46 0 -25 -9 -31 -8 -40 7 -7 10 -12 23 -12 29 0 6 -11 23 -25 38
-14 15 -25 32 -25 39 0 14 -31 33 -55 33 -10 0 -32 -15 -50 -33z m206 -308
c19 -39 20 -41 2 -34 -10 5 -40 11 -68 14 l-50 6 45 26 c25 15 46 27 47 28 2
1 12 -18 24 -40z m127 -148 l33 -29 -27 -6 c-31 -8 -32 -8 -44 33 -11 38 -4
38 38 2z m-198 -83 l34 -11 -34 -28 c-19 -16 -35 -27 -37 -26 -7 7 -11 77 -4
77 5 0 23 -5 41 -12z m-237 -158 c-6 -56 -18 -90 -31 -90 -9 0 2 126 14 163 7
21 7 21 15 2 4 -11 5 -45 2 -75z m57 -1 c0 -20 -43 -109 -52 -109 -10 0 -6 20
18 88 14 37 34 50 34 21z m32 -76 c-14 -25 -72 -79 -72 -67 0 13 71 96 77 90
3 -2 0 -13 -5 -23z m-242 -89 l35 -13 -31 0 c-51 -1 -94 10 -94 25 0 15 24 12
90 -12z m25 -44 c-3 -5 -35 -10 -71 -10 -36 0 -64 4 -64 10 0 6 30 10 71 10
44 0 68 -4 64 -10z m315 -15 c26 -13 50 -42 50 -60 0 -3 -20 6 -43 20 -24 14
-53 25 -64 25 -12 0 -23 7 -27 15 -7 20 45 20 84 0z m-411 -90 c17 -4 49 -4
71 0 l40 7 -15 -36 c-8 -19 -17 -55 -19 -78 l-4 -43 -55 -2 c-48 -2 -57 1 -70
20 -14 21 -13 24 4 35 12 8 19 24 19 43 0 25 -10 41 -50 77 -27 24 -47 49 -44
54 3 5 25 -9 48 -30 24 -22 57 -43 75 -47z m76 54 c-22 -10 -49 -18 -60 -18
-14 0 -7 7 20 20 22 10 49 18 60 18 14 0 7 -7 -20 -20z m-1096 -74 c25 -79 38
-175 23 -160 -13 13 -48 128 -57 190 -11 68 9 51 34 -30z m1449 28 c32 -24 89
-99 81 -108 -2 -2 -27 15 -55 38 -29 23 -58 47 -67 52 -8 6 -18 20 -22 32 -5
19 -3 22 12 16 10 -3 33 -17 51 -30z m-1389 -100 c1 -43 -3 -73 -9 -73 -6 0
-10 37 -9 93 0 60 3 85 9 72 5 -11 9 -53 9 -92z m1121 56 c-6 -18 -10 -53 -10
-76 0 -45 -14 -58 -25 -23 -7 21 10 92 28 121 16 26 18 18 7 -22z m125 -16
c-11 -63 -24 -74 -25 -22 0 46 5 59 23 59 5 0 6 -16 2 -37z m51 -10 c-7 -21
-56 -91 -56 -80 0 13 30 80 42 94 14 17 22 10 14 -14z m-1240 -34 c-7 -42 -34
-104 -42 -96 -6 5 35 137 43 137 3 0 3 -18 -1 -41z m639 -32 c-8 -27 -24 -60
-35 -75 l-22 -27 8 30 c3 17 13 37 20 46 8 8 14 25 14 36 0 31 11 56 21 46 5
-5 2 -30 -6 -56z m674 42 c13 -11 22 -21 20 -22 -2 -1 -19 -8 -38 -14 -32 -12
-33 -11 -27 10 3 12 6 28 6 35 0 17 11 15 39 -9z m-210 -69 c1 -13 0 -13 -9 0
-5 8 -9 24 -9 35 l0 20 9 -20 c5 -11 9 -27 9 -35z m311 -26 c17 -15 29 -28 28
-30 -2 -2 -23 3 -47 10 -31 9 -60 10 -99 4 -30 -5 -57 -6 -60 -4 -9 10 82 46
115 46 20 0 43 -10 63 -26z m-870 -30 c-9 -38 -20 -57 -20 -33 0 8 -3 24 -6
36 -4 15 -1 22 13 26 10 3 19 5 19 6 1 0 -2 -15 -6 -35z m-349 -3 l24 -20 -55
5 c-34 4 -73 0 -102 -9 -52 -16 -54 -6 -4 24 41 25 107 25 137 0z m809 9 c0
-6 -32 -10 -75 -10 -43 0 -75 4 -75 10 0 6 32 10 75 10 43 0 75 -4 75 -10z
m-715 -20 c3 -6 -1 -7 -9 -4 -18 7 -21 14 -7 14 6 0 13 -4 16 -10z m1086 -1
c38 -8 64 -22 96 -52 24 -22 42 -42 39 -44 -2 -2 -22 5 -45 16 -22 12 -78 33
-123 47 -46 14 -87 30 -92 35 -14 13 62 11 125 -2z m-331 -13 c0 -10 -101 -37
-122 -34 -18 3 -11 8 27 20 48 16 95 23 95 14z m-835 -26 c24 -9 43 -35 33
-45 -3 -3 -18 -1 -34 4 -16 5 -62 14 -102 21 -39 6 -70 16 -66 21 7 12 136 12
169 -1z m865 -5 c-16 -20 -80 -59 -86 -53 -8 8 67 61 95 67 2 1 -2 -6 -9 -14z
m-1275 -11 c-27 -7 -77 -13 -110 -13 l-60 1 50 13 c28 7 77 13 110 13 l60 0
-50 -14z m49 -15 c-9 -15 -80 -45 -124 -53 l-35 -7 30 17 c24 14 119 52 133
54 2 0 0 -5 -4 -11z m26 -28 c-5 -11 -22 -28 -37 -39 -54 -37 -57 -33 -10 12
54 51 63 56 47 27z m513 2 c-7 -2 -19 -2 -25 0 -7 3 -2 5 12 5 14 0 19 -2 13
-5z m842 -103 c15 -47 34 -98 43 -115 l15 -30 -23 20 c-41 37 -70 99 -76 166
-8 83 5 70 41 -41z m-55 -59 c17 -32 -4 -25 -23 8 -17 29 -23 111 -9 125 4 4
10 -19 14 -53 4 -33 12 -69 18 -80z m-1181 -18 c15 -31 17 -41 7 -37 -37 14
-70 126 -51 171 6 13 10 3 15 -37 4 -30 17 -74 29 -97z m53 42 c17 -33 39 -72
49 -87 31 -43 22 -45 -22 -3 -49 48 -57 62 -80 140 l-18 60 21 -25 c11 -14 34
-52 50 -85z m730 54 c23 -12 58 -58 58 -77 0 -9 -14 -2 -39 21 -22 20 -59 41
-83 48 -67 19 -71 32 -8 24 30 -4 63 -11 72 -16z m-28 -53 c66 -42 73 -52 41
-58 -18 -4 -36 4 -65 29 -22 19 -40 41 -40 49 0 20 4 18 64 -20z m-261 -67
c-10 -36 -33 -52 -33 -22 0 20 29 67 37 60 2 -3 0 -20 -4 -38z m237 -13 c0 -2
-13 -29 -29 -60 -21 -41 -30 -53 -35 -41 -10 27 -7 52 12 89 14 27 20 32 35
25 9 -6 17 -11 17 -13z m-579 -217 c11 -23 27 -71 35 -108 16 -78 17 -91 5
-91 -11 0 -47 106 -56 165 -4 22 -9 48 -12 58 -8 30 6 18 28 -24z m83 -102 c0
-38 -5 -72 -12 -79 -9 -9 -12 10 -12 88 1 82 3 96 13 79 6 -11 12 -50 11 -88z
m61 1 c-8 -37 -44 -112 -51 -106 -4 5 29 109 41 128 12 20 16 9 10 -22z m222
-121 c11 -11 4 -13 -44 -9 -36 2 -80 -2 -113 -12 l-55 -15 30 24 c52 43 145
49 182 12z m17 -47 c14 -5 26 -17 26 -25 0 -12 -7 -15 -32 -11 -18 3 -73 10
-122 17 -57 7 -83 14 -75 20 19 12 172 11 203 -1z m-454 -24 c-51 -14 -188
-30 -178 -21 9 9 140 33 183 33 l40 0 -45 -12z m36 -21 c-11 -8 -29 -15 -40
-14 -17 0 -15 3 9 14 39 18 55 18 31 0z m29 -25 c-10 -11 -21 -17 -24 -14 -3
3 3 12 13 20 28 20 32 17 11 -6z m125 -160 c21 -42 15 -53 -13 -22 -28 30 -39
74 -31 122 l7 45 9 -53 c4 -29 17 -71 28 -92z m51 57 c23 -40 56 -90 73 -112
33 -42 25 -40 -37 8 -41 32 -61 65 -83 136 -17 55 -16 54 -4 46 5 -3 28 -38
51 -78z m-148 -77 c-14 -57 12 -147 77 -268 23 -41 39 -76 38 -76 -2 -1 -40
-9 -85 -17 -78 -15 -83 -15 -88 2 -16 50 -102 75 -169 49 l-26 -9 6 58 c9 78
-8 124 -66 180 -26 25 -51 60 -54 76 l-7 30 38 -36 c55 -53 81 -64 101 -46 9
8 34 22 55 30 20 9 37 21 37 26 0 6 6 11 14 11 7 0 37 28 67 61 l54 62 7 -54
c4 -30 5 -65 1 -79z m117 -191 c31 -80 36 -109 21 -109 -12 0 -70 130 -85 195
-7 29 -7 29 13 11 11 -10 34 -54 51 -97z m57 -19 c8 -81 -12 -86 -26 -7 -6 35
-11 77 -11 93 l1 29 15 -29 c9 -16 18 -55 21 -86z m-512 -60 l-15 -45 5 87 c6
109 19 145 23 63 1 -35 -4 -79 -13 -105z m-36 38 c0 -99 -11 -97 -24 5 -5 40
-4 62 5 72 7 8 14 15 16 15 2 0 4 -42 3 -92z m587 -29 c-12 -29 -14 -31 -15
-11 -1 13 5 44 12 70 l12 47 3 -36 c2 -20 -4 -52 -12 -70z m-481 44 c-8 -33
-55 -117 -61 -110 -7 6 53 137 61 137 4 0 4 -12 0 -27z m720 -55 c36 -16 31
-24 -15 -20 -40 4 -59 -1 -135 -33 l-40 -17 20 22 c23 27 91 59 122 60 12 0
34 -5 48 -12z m95 -76 l45 -22 -55 5 c-30 3 -102 5 -159 5 -57 0 -101 3 -98 7
4 3 28 12 54 19 66 19 158 13 213 -14z m-653 -17 c31 -27 17 -34 -31 -15 -17
6 -45 6 -82 -1 -31 -6 -58 -8 -60 -6 -3 3 14 14 38 26 57 28 100 27 135 -4z
m-353 -24 c8 -13 -125 -24 -176 -15 l-43 8 40 7 c62 10 173 10 179 0z m541 0
c-7 -13 -105 -45 -112 -37 -11 10 4 18 59 32 29 7 54 13 56 13 2 1 1 -3 -3 -8z
m-260 -27 c-21 -16 -71 -12 -89 6 -7 7 11 10 50 10 55 -1 58 -2 39 -16z m-265
0 c0 -9 -73 -36 -122 -43 -26 -5 -48 -6 -48 -4 0 5 47 22 105 38 58 16 65 17
65 9z m496 -29 c-52 -37 -70 -43 -64 -23 5 13 84 58 102 58 6 0 -11 -16 -38
-35z m74 20 c0 -11 -73 -85 -83 -85 -6 0 9 20 33 45 44 45 50 50 50 40z m-200
-15 c0 -5 -12 -10 -27 -10 -22 0 -25 2 -13 10 20 13 40 13 40 0z m-360 -15
c-17 -21 -80 -58 -86 -52 -7 6 74 67 89 67 5 0 4 -7 -3 -15z m707 -32 c40 -51
45 -62 31 -59 -24 3 -38 17 -58 57 -26 49 -11 50 27 2z m-54 -10 c7 -41 1 -55
-13 -33 -12 19 -13 70 -1 70 4 0 11 -17 14 -37z m-248 17 c3 -5 -1 -10 -10
-10 -9 0 -13 5 -10 10 3 6 8 10 10 10 2 0 7 -4 10 -10z m-330 -47 c-4 -29 0
-70 9 -103 8 -30 13 -57 11 -59 -9 -8 -45 66 -45 92 0 30 20 117 27 117 2 0 1
-21 -2 -47z m241 1 c28 -13 64 -27 80 -30 40 -8 111 12 151 42 l31 24 11 -51
c6 -28 18 -63 25 -78 8 -14 22 -46 31 -70 22 -61 66 -122 121 -169 l47 -40
-59 -17 c-32 -9 -72 -24 -88 -32 -24 -13 -39 -13 -87 -4 -52 11 -64 10 -103
-8 -29 -12 -54 -34 -72 -60 -14 -23 -28 -41 -29 -41 -1 0 -2 23 -4 50 l-2 50
32 0 c25 0 42 10 76 45 48 51 53 78 21 112 -18 19 -32 23 -83 23 l-62 0 16 60
c14 54 14 63 1 88 -21 36 -54 38 -113 9 l-48 -25 -15 37 c-8 20 -18 55 -21 78
l-6 43 49 -6 c27 -3 72 -17 100 -30z m-166 -87 c35 -100 37 -115 13 -96 -26
22 -51 88 -58 154 -8 74 3 61 45 -58z m24 -153 c3 -8 2 -12 -4 -9 -6 3 -10 10
-10 16 0 14 7 11 14 -7z m-180 -611 l6 -58 -16 34 c-8 18 -17 63 -19 100 l-5
66 14 -42 c8 -23 17 -68 20 -100z m-45 6 c18 -39 30 -73 28 -76 -7 -6 -45 59
-62 106 -23 67 0 47 34 -30z m6 -98 c-7 -6 -64 49 -77 74 -6 11 10 0 36 -24
25 -25 43 -47 41 -50z m193 -3 c-3 -7 -20 -14 -39 -16 l-34 -2 25 15 c31 18
53 19 48 3z m2 -38 c0 -5 -15 -10 -32 -9 -28 0 -30 2 -13 9 28 12 45 12 45 0z
m49 -55 c2 -3 -10 -5 -28 -5 -30 0 -101 24 -101 34 0 5 122 -22 129 -29z
m-329 11 c-31 -6 -73 -22 -94 -34 -46 -27 -43 -6 4 26 25 17 46 22 89 21 l56
-1 -55 -12z m40 -20 c0 -3 -47 -36 -104 -74 -105 -69 -119 -69 -52 0 36 37
156 94 156 74z m146 -59 c31 -46 37 -81 20 -122 -20 -48 -36 -45 -25 4 7 30 4
52 -11 95 -21 63 -15 72 16 23z m-32 -74 c1 -68 -3 -84 -27 -125 -37 -64 -49
-68 -32 -11 7 26 19 90 26 141 15 113 32 110 33 -5z"/>
<path d="M11731 6054 c-51 -64 -54 -199 -8 -312 l25 -64 -36 9 c-20 4 -82 8
-137 8 -84 0 -107 -4 -146 -23 -48 -23 -70 -55 -60 -84 7 -19 94 -88 111 -88
6 0 24 -10 40 -21 16 -12 35 -19 44 -16 8 3 20 -1 26 -9 25 -29 69 -7 112 56
l17 25 0 -39 c1 -67 35 -121 94 -150 63 -32 78 -32 104 -3 30 33 33 50 17 109
-22 82 -23 80 55 72 66 -6 69 -5 101 23 26 24 32 35 27 54 -21 83 -108 144
-191 135 l-50 -5 41 42 c48 49 60 79 39 96 -8 7 -18 25 -21 41 -3 15 -15 36
-26 46 -10 9 -19 23 -19 31 0 7 -4 13 -8 13 -5 0 -26 18 -48 40 -45 46 -74 50
-103 14z"/>
<path d="M4040 5935 c-19 -22 31 -103 128 -206 l83 -88 -83 -42 c-134 -66
-220 -141 -194 -167 4 -3 27 -5 52 -3 25 1 70 -3 100 -10 73 -16 122 -1 166
50 l32 39 28 -48 c32 -56 75 -90 113 -90 15 0 52 7 82 16 43 12 61 14 80 5 33
-15 43 -14 43 7 -1 26 -19 44 -95 94 -38 25 -83 59 -100 77 l-29 31 20 21 c14
13 47 25 100 34 93 16 125 27 143 49 18 22 6 34 -34 34 -24 0 -49 11 -83 36
-71 52 -96 59 -140 40 -20 -8 -49 -27 -64 -41 -15 -15 -29 -25 -30 -22 -2 2
-14 25 -27 52 -29 58 -70 84 -153 99 -35 5 -77 19 -94 29 -27 17 -33 17 -44 4z
m142 -128 c67 -81 104 -155 52 -106 -30 28 -134 162 -134 172 0 14 46 -23 82
-66z m62 -6 c13 -25 26 -59 30 -76 6 -29 5 -28 -20 10 -24 37 -64 120 -64 132
0 16 34 -27 54 -66z m65 -61 c0 -62 -15 -32 -23 45 -5 57 -5 59 9 30 8 -16 14
-50 14 -75z m236 30 c3 -5 -3 -10 -15 -10 -28 0 -78 -24 -117 -56 -46 -37 -41
-10 6 37 32 33 45 39 79 39 23 0 44 -4 47 -10z m119 -50 c7 -7 -2 -10 -26 -10
-20 0 -83 -11 -139 -25 -57 -13 -104 -23 -106 -21 -6 6 60 44 103 61 42 16
150 13 168 -5z m-435 -136 c-20 -24 -95 -73 -137 -90 l-37 -15 35 30 c29 25
135 90 149 91 2 0 -2 -7 -10 -16z m5 -41 c-30 -42 -82 -88 -90 -80 -6 5 98
117 110 117 4 0 -5 -17 -20 -37z m282 -60 c48 -35 84 -63 81 -63 -4 0 -28 7
-54 16 -31 10 -67 34 -100 67 -52 51 -71 82 -34 56 11 -8 59 -42 107 -76z
m-250 18 c-24 -45 -39 -48 -21 -4 9 21 20 45 23 53 5 13 7 12 10 -2 2 -9 -4
-30 -12 -47z m128 15 c14 -25 41 -56 58 -70 22 -17 28 -26 17 -26 -36 0 -84
55 -103 118 -11 34 0 26 28 -22z"/>
<path d="M10447 5811 c-20 -16 -56 -33 -79 -40 -82 -21 -117 -53 -143 -135 -5
-19 -6 -18 -28 1 -34 31 -107 64 -126 58 -10 -3 -23 -17 -30 -32 -9 -19 -15
-23 -20 -15 -13 22 -40 1 -53 -40 -14 -48 -59 -88 -99 -88 -16 0 -29 -4 -29
-8 0 -16 36 -42 68 -48 l32 -6 0 -69 c0 -64 -2 -70 -24 -79 -17 -6 -45 -2
-102 16 -87 28 -196 36 -215 17 -10 -10 -4 -21 29 -55 24 -24 57 -63 75 -88
42 -57 77 -75 146 -72 47 2 52 0 46 -16 -5 -9 -10 -45 -13 -79 -6 -79 7 -100
88 -145 47 -25 63 -40 68 -63 10 -38 32 -39 45 -1 7 21 5 48 -8 100 -22 90
-29 167 -17 185 13 19 65 1 133 -47 30 -20 67 -43 83 -50 l29 -13 -40 -42
c-58 -61 -75 -88 -62 -103 8 -10 19 -10 51 2 27 9 58 12 94 8 88 -11 152 23
212 112 8 13 14 15 18 7 17 -38 54 -81 87 -98 36 -19 38 -19 87 -2 28 10 60
15 71 12 31 -10 42 -50 24 -85 -14 -28 -20 -70 -10 -70 2 0 19 9 37 20 24 15
51 20 100 20 82 0 113 11 136 48 14 24 21 28 40 21 25 -10 70 4 78 24 3 8 22
13 52 13 31 1 65 10 101 28 29 15 71 31 94 34 22 4 42 13 44 19 10 29 -127 83
-265 106 -76 13 -94 31 -33 32 45 1 71 19 71 47 0 11 5 29 11 40 6 11 11 59
10 106 0 71 -4 89 -20 105 -17 17 -24 18 -53 8 -18 -6 -57 -28 -87 -48 -47
-33 -54 -35 -63 -20 -5 9 -22 24 -38 32 -17 9 -30 22 -30 30 0 8 -20 28 -45
45 -39 27 -45 36 -45 66 0 36 -20 85 -48 117 -8 9 -12 17 -8 17 4 0 -1 14 -11
30 -9 17 -21 30 -25 30 -4 0 -8 6 -8 13 0 16 -32 47 -48 47 -19 0 -79 -58 -92
-90 -11 -27 -40 -42 -40 -21 0 5 -18 12 -40 16 -22 4 -42 11 -46 16 -8 13 -60
11 -72 -3 -22 -27 -24 -83 -4 -141 l19 -57 -61 0 c-92 0 -94 6 -40 86 80 119
120 229 91 252 -11 10 -21 6 -50 -17z m-7 -87 c-18 -47 -61 -129 -80 -154
l-20 -25 14 41 c17 50 42 99 68 137 24 34 30 35 18 1z m-96 -91 c-17 -72 -19
-75 -22 -39 -3 37 24 133 35 122 3 -3 -3 -40 -13 -83z m-55 -43 c0 -26 -2 -31
-9 -20 -5 8 -9 35 -9 60 1 37 2 41 9 20 4 -14 8 -41 9 -60z m-283 -187 c-10
-85 -26 -91 -26 -10 0 55 3 67 16 67 14 0 16 -8 10 -57z m39 -19 c-9 -24 -21
-44 -26 -44 -11 0 -3 41 19 90 22 52 29 10 7 -46z m49 -18 c-3 -9 -13 -16 -22
-16 -13 0 -12 3 3 20 20 23 29 21 19 -4z m-280 -78 c24 -6 35 -13 29 -19 -9
-9 -112 13 -142 32 -18 11 47 4 113 -13z m604 -32 c10 -6 11 -11 3 -19 -7 -7
-15 -6 -26 3 -29 24 -10 37 23 16z m-46 -63 c-7 -21 -17 -15 -35 23 l-18 36
29 -23 c16 -13 27 -30 24 -36z m-552 37 c0 -5 -18 -10 -40 -10 -22 0 -40 5
-40 10 0 6 18 10 40 10 22 0 40 -4 40 -10z m10 -60 c-8 -5 -19 -10 -25 -10 -5
0 -3 5 5 10 8 5 20 10 25 10 6 0 3 -5 -5 -10z m326 -7 c21 -28 16 -35 -11 -17
-14 9 -22 20 -19 25 8 13 15 11 30 -8z m-197 -63 c-6 -16 -9 -56 -7 -89 2 -43
0 -57 -8 -50 -20 17 -24 67 -8 118 8 28 19 51 24 51 5 0 4 -13 -1 -30z m56
-85 c9 -55 18 -111 21 -125 2 -14 -9 2 -26 35 -20 40 -30 75 -30 105 0 43 9
94 16 88 1 -2 10 -48 19 -103z m275 50 c19 -23 8 -26 -20 -5 -19 15 -21 20 -9
20 9 0 22 -7 29 -15z m94 6 c17 -6 16 -9 -10 -25 -28 -19 -53 -14 -61 11 -6
18 39 27 71 14z m293 -98 c31 -31 38 -43 26 -43 -33 1 -64 35 -88 96 -15 38
-15 38 2 14 9 -14 36 -44 60 -67z m2 56 c11 -19 12 -21 0 -9 -8 8 -21 20 -29
28 -12 11 -12 13 -1 10 8 -2 21 -15 30 -29z m-254 -14 c-39 -34 -105 -83 -135
-100 -28 -16 24 37 85 86 69 55 111 67 50 14z m44 -4 c-12 -22 -40 -57 -62
-78 l-40 -38 20 33 c22 38 91 122 99 122 3 0 -5 -18 -17 -39z m901 -4 c63 -21
64 -22 29 -25 -41 -3 -171 37 -176 55 -5 14 53 2 147 -30z m-874 -39 c-14 -29
-23 -42 -20 -28 8 40 38 104 42 91 2 -6 -8 -34 -22 -63z m854 -30 c0 -17 -88
14 -102 36 -17 25 -5 24 47 -1 30 -15 55 -31 55 -35z m-320 -39 c-12 -23 -24
-39 -26 -36 -5 5 35 77 42 77 3 0 -5 -18 -16 -41z m50 -25 c0 -20 -45 -64 -64
-64 -12 0 -7 12 17 44 32 43 47 49 47 20z m-110 -49 c0 -6 -49 -31 -80 -40
-25 -8 -25 -7 -6 13 10 12 30 23 45 25 14 2 29 5 34 6 4 0 7 -1 7 -4z"/>
<path d="M5222 5773 c-24 -46 -35 -132 -32 -247 1 -40 26 -65 72 -72 34 -6 55
-24 26 -24 -19 0 -77 -50 -93 -80 -16 -31 -20 -126 -7 -148 5 -7 25 -15 45
-19 32 -5 45 0 96 36 l59 41 18 -58 c35 -110 97 -134 156 -60 29 38 33 49 33
104 0 49 -5 69 -23 93 -26 36 -17 39 38 11 52 -27 86 -26 101 2 7 13 23 31 36
41 12 10 23 25 23 32 0 7 6 20 13 27 7 7 23 38 36 70 33 82 12 111 -78 110
-79 -1 -230 -83 -261 -142 -17 -33 -25 -24 -38 46 -17 91 -54 164 -107 213
-49 45 -97 55 -113 24z"/>
<path d="M7386 5653 c-25 -27 -46 -55 -46 -64 0 -9 -9 -24 -20 -34 -11 -10
-20 -30 -20 -45 0 -15 -7 -33 -15 -40 -26 -21 -17 -47 30 -88 l45 -40 -60 -4
c-70 -5 -104 -26 -137 -84 -30 -51 -29 -85 2 -114 25 -23 28 -24 103 -13 42 6
78 10 79 9 1 -1 -2 -33 -8 -70 -10 -62 -9 -71 8 -94 38 -51 68 -53 133 -9 54
36 82 91 77 155 l-4 53 47 -51 c48 -52 78 -62 100 -35 7 8 23 15 36 15 13 0
33 9 44 20 11 11 23 20 28 20 17 1 112 101 112 119 0 25 -51 68 -98 81 -64 17
-171 12 -244 -14 -38 -12 -68 -18 -68 -13 0 5 7 34 16 64 23 77 16 213 -14
269 -36 70 -64 71 -126 7z"/>
<path d="M10868 4721 c-55 -65 -61 -206 -14 -322 17 -42 20 -59 11 -55 -85 32
-224 38 -295 12 -97 -36 -106 -79 -31 -143 28 -24 55 -43 62 -43 7 0 21 -8 31
-17 11 -10 30 -18 43 -18 13 -1 31 -7 39 -14 25 -21 63 -4 96 41 l30 41 0 -43
c0 -70 32 -124 93 -154 65 -33 80 -33 107 2 19 23 21 35 16 82 -3 30 -9 65
-12 77 -6 23 -6 23 70 16 71 -6 78 -4 101 17 73 69 -38 208 -157 197 -27 -2
-48 -3 -48 -2 0 1 20 23 45 47 47 47 56 77 30 98 -8 7 -15 20 -15 28 0 38
-111 167 -152 177 -20 5 -30 0 -50 -24z"/>
<path d="M11529 4373 c-11 -12 -14 -49 -13 -144 l2 -128 -37 19 c-90 46 -137
35 -201 -45 -26 -34 -43 -45 -73 -50 -50 -9 -46 -32 10 -63 39 -21 43 -27 54
-83 6 -33 16 -62 20 -65 5 -3 9 -15 9 -28 0 -13 9 -31 19 -40 27 -24 17 -48
-17 -39 -21 5 -32 -2 -74 -48 -26 -29 -48 -60 -48 -67 0 -10 -11 -12 -47 -6
-27 3 -50 8 -51 10 -2 1 3 15 12 31 23 42 46 103 46 124 0 25 -30 39 -87 39
-61 0 -137 -35 -197 -90 l-45 -41 -6 38 c-17 103 -59 191 -111 232 -64 51
-105 -7 -110 -156 -4 -102 2 -112 69 -129 l29 -7 -38 -21 c-49 -28 -71 -61
-78 -117 -5 -36 -3 -50 11 -67 32 -36 56 -35 112 4 29 19 54 34 55 32 2 -2 10
-25 19 -52 16 -45 15 -51 -3 -106 -22 -66 -44 -230 -38 -290 2 -22 1 -40 -2
-40 -3 0 -41 12 -85 26 -104 34 -261 46 -271 20 -4 -11 7 -30 37 -60 24 -23
58 -63 74 -87 40 -57 88 -76 156 -62 44 9 49 8 43 -6 -23 -54 -33 -117 -24
-152 12 -42 17 -47 87 -84 57 -29 69 -40 75 -70 5 -29 31 -25 42 7 7 19 4 55
-8 120 -10 51 -16 111 -14 133 3 37 6 40 34 43 23 2 49 -9 107 -48 43 -28 77
-55 77 -60 0 -4 -9 -10 -20 -13 -17 -4 -20 -10 -13 -34 8 -29 8 -43 2 -148 -2
-45 2 -68 16 -92 15 -26 16 -34 6 -47 -9 -11 -11 -30 -6 -62 6 -45 6 -46 -17
-41 -98 25 -139 16 -200 -41 -32 -29 -34 -42 -13 -82 11 -22 30 -33 80 -50 36
-12 65 -24 65 -27 0 -3 -9 -18 -20 -34 -17 -24 -26 -27 -50 -22 -29 5 -30 5
-30 -35 0 -50 46 -180 95 -269 24 -44 31 -65 22 -67 -6 -3 -41 -10 -76 -16
-36 -6 -94 -22 -130 -35 -36 -12 -90 -26 -119 -29 l-53 -7 8 28 c16 60 7 121
-25 164 -17 23 -40 48 -52 56 -12 9 -30 35 -40 59 -21 47 -43 51 -56 11 -11
-32 -6 -228 6 -282 6 -26 9 -50 6 -52 -2 -2 -41 3 -85 12 -95 20 -233 17 -253
-3 -11 -11 -9 -17 11 -30 13 -10 53 -45 88 -79 76 -75 125 -89 204 -58 14 5
16 -4 15 -68 l-1 -74 -60 42 c-77 54 -118 75 -149 75 -35 0 -40 -16 -17 -53
11 -19 23 -60 27 -93 11 -99 44 -140 132 -163 23 -7 42 -13 42 -15 0 -1 -35
-1 -77 2 -137 7 -195 -26 -115 -67 48 -25 92 -75 92 -106 0 -12 21 -49 46 -81
38 -50 45 -64 40 -91 -6 -41 5 -48 37 -23 18 14 30 40 42 91 14 57 22 72 42
80 38 14 43 11 33 -17 -6 -14 -10 -50 -10 -80 0 -68 21 -92 106 -123 77 -28
87 -33 101 -62 16 -32 35 -30 47 3 8 22 4 41 -17 93 -32 79 -33 81 -6 88 17 5
19 9 10 26 -6 11 -11 33 -11 50 0 42 21 41 113 -5 54 -28 85 -37 126 -38 63
-1 72 11 29 39 -22 14 -37 35 -48 71 -39 115 -60 134 -149 134 -60 0 -75 15
-67 67 4 21 2 53 -3 70 -12 40 -2 185 12 176 25 -15 77 -20 93 -9 15 12 14 15
-14 34 -16 12 -35 35 -40 52 -12 33 -5 37 30 19 33 -18 104 -2 142 32 19 16
36 29 40 29 3 0 6 -15 6 -33 0 -46 45 -131 76 -145 14 -7 56 -12 94 -12 57 0
74 -4 90 -20 28 -28 40 -25 40 9 0 21 -19 53 -66 113 -37 45 -74 98 -83 116
-15 32 -15 35 4 49 16 12 41 14 131 8 99 -6 113 -4 134 13 27 22 21 37 -19 45
-19 4 -40 22 -66 56 -71 97 -106 109 -191 66 -27 -14 -50 -25 -51 -25 -2 0 -3
18 -3 40 0 23 -9 59 -21 82 -19 37 -19 42 -5 50 9 5 27 30 40 56 l24 46 7 -44
c12 -73 31 -101 68 -101 18 0 57 -1 87 -3 30 -1 73 3 95 10 22 8 47 14 56 14
54 0 48 81 -11 140 l-39 39 29 57 c37 68 37 98 5 146 -16 24 -21 39 -14 44 6
3 19 27 30 52 l20 45 27 -25 c84 -78 120 -78 221 -1 32 24 54 33 82 33 22 0
39 5 39 10 0 25 -52 58 -100 64 -28 4 -62 11 -76 16 l-24 10 20 20 c11 11 20
28 20 39 0 22 55 35 80 19 27 -17 99 8 106 37 8 32 -11 85 -52 146 -32 48 -33
51 -12 45 131 -37 214 -42 223 -13 13 42 12 88 -1 101 -8 8 -14 21 -14 28 0
21 -21 38 -46 38 -12 0 -27 7 -34 15 -7 8 -19 15 -26 15 -8 0 -14 9 -14 19 0
11 -5 23 -11 27 -13 8 -3 122 12 140 5 6 10 45 11 87 1 43 5 77 8 76 3 0 19
-21 35 -47 28 -43 76 -75 91 -60 3 4 1 22 -6 42 -9 29 -8 46 9 101 12 37 21
78 21 90 0 32 -41 78 -89 100 l-41 18 40 44 c50 54 62 83 59 148 -1 28 1 57 5
64 5 7 1 20 -8 30 -12 13 -14 24 -6 51 15 53 -7 66 -53 30 -36 -29 -54 -25
-81 18 -13 20 -30 42 -37 49 -22 18 -83 26 -122 15 l-36 -10 49 95 c93 181 90
288 -6 203 -69 -60 -123 -49 -165 33 -22 41 -30 45 -50 20z m40 -158 c-12 -12
-14 -8 -10 33 l4 47 10 -33 c8 -25 7 -36 -4 -47z m172 -16 c-13 -38 -21 -49
-26 -37 -6 15 31 105 41 96 2 -3 -5 -29 -15 -59z m-276 -125 c18 -8 43 -26 56
-40 l24 -26 -52 27 c-29 15 -72 30 -97 32 -25 3 -43 9 -40 14 8 14 73 10 109
-7z m150 6 c3 -5 1 -10 -4 -10 -6 0 -11 5 -11 10 0 6 2 10 4 10 3 0 8 -4 11
-10z m-222 -47 c-7 -2 -19 -2 -25 0 -7 3 -2 5 12 5 14 0 19 -2 13 -5z m69
-105 c-17 -8 -26 -8 -34 0 -9 9 -4 12 23 11 32 0 33 -1 11 -11z m424 -45 c-8
-8 -36 5 -36 17 0 7 6 7 21 0 11 -7 18 -14 15 -17z m110 -112 c-15 -29 -113
-121 -129 -121 -19 0 120 147 141 150 1 0 -4 -13 -12 -29z m-66 1 c0 -11 -81
-112 -91 -112 -11 0 -1 21 39 86 15 25 31 40 39 37 7 -3 13 -8 13 -11z m-80 4
c0 -2 -14 -32 -31 -66 l-31 -62 -34 33 c-19 18 -34 36 -34 41 0 4 15 7 33 6
39 -1 77 17 77 37 0 8 5 15 10 15 6 0 10 -2 10 -4z m-412 -117 c-18 -23 -24
-47 -26 -105 -5 -91 -24 -95 -34 -8 -3 32 -11 71 -17 86 -12 32 -1 45 49 51
19 2 39 5 43 5 4 1 -3 -12 -15 -29z m553 17 c-14 -16 -111 -60 -118 -52 -5 5
105 65 121 66 5 0 3 -6 -3 -14z m-997 -146 c15 0 30 8 36 20 10 19 13 18 50
-25 22 -26 40 -53 40 -61 0 -8 9 -32 20 -54 l20 -39 -49 -16 c-57 -19 -73 -34
-101 -98 -24 -54 -17 -78 29 -101 20 -11 37 -12 67 -6 21 5 51 10 65 10 26 0
26 -1 18 -42 -14 -73 -11 -96 20 -130 l28 -32 46 18 c25 9 51 24 57 32 13 15
70 20 70 6 0 -26 -33 -71 -58 -77 -41 -10 -72 -33 -72 -54 0 -11 24 -40 55
-66 30 -26 55 -53 55 -61 0 -25 -22 -26 -48 -1 -32 30 -91 57 -127 57 -13 0
-47 -9 -75 -19 -27 -11 -52 -16 -54 -13 -2 4 -7 30 -11 57 -16 120 -41 147
-135 148 l-57 0 19 49 c31 82 20 138 -40 215 -36 45 -50 85 -30 82 29 -4 39 3
68 43 36 49 40 105 11 160 l-18 37 38 -19 c21 -11 49 -20 63 -20z m599 5 c-3
-9 -8 -14 -10 -11 -3 3 -2 9 2 15 9 16 15 13 8 -4z m395 -24 c32 -23 47 -54
40 -88 -3 -14 -8 -10 -27 20 -14 23 -45 50 -77 69 -30 16 -54 31 -54 32 0 11
93 -15 118 -33z m-43 -47 c19 -19 42 -48 50 -64 16 -31 32 -120 22 -120 -4 0
-19 24 -33 53 -15 28 -37 66 -50 83 -13 17 -24 35 -24 41 0 6 -10 23 -22 38
l-21 28 21 -12 c12 -7 38 -27 57 -47z m-315 16 c-6 -10 -15 -22 -21 -25 -19
-12 -21 3 -4 29 19 29 41 26 25 -4z m130 -17 c-1 -23 -35 -69 -43 -56 -5 8 29
73 39 73 2 0 4 -8 4 -17z m-62 -13 c-7 -11 -19 -20 -26 -20 -10 0 -10 5 -2 20
6 11 17 20 25 20 13 0 13 -3 3 -20z m-908 -350 c-6 -36 -16 -72 -21 -80 -15
-21 -3 164 13 215 l13 40 3 -54 c2 -30 -2 -84 -8 -121z m61 44 c-13 -52 -50
-129 -57 -121 -6 6 16 85 40 141 21 51 32 39 17 -20z m31 -76 c-23 -36 -72
-87 -72 -73 0 13 81 117 87 111 3 -3 -4 -20 -15 -38z m-267 -96 c60 -15 65
-17 36 -20 -39 -4 -178 25 -187 39 -7 12 55 4 151 -19z m396 -61 c39 -39 37
-58 -3 -30 -22 16 -52 25 -102 29 -63 6 -68 8 -46 18 14 6 47 11 73 11 41 1
53 -4 78 -28z m-351 9 c-35 -11 -171 -11 -145 0 11 5 54 8 95 8 52 0 67 -2 50
-8z m4 -40 c-17 -11 -46 -22 -65 -25 -32 -5 -30 -3 16 19 60 30 92 33 49 6z
m312 -15 c30 -15 62 -40 77 -62 32 -45 19 -55 -26 -21 -18 13 -62 41 -99 61
-37 21 -70 43 -74 49 -11 17 63 1 122 -27z m-243 -72 c-8 -28 -13 -72 -10
-107 3 -50 2 -56 -10 -40 -20 27 -16 109 7 154 11 22 22 40 24 40 2 0 -3 -21
-11 -47z m52 -59 c4 -40 12 -98 20 -129 7 -30 11 -55 9 -55 -6 0 -46 83 -55
114 -10 35 0 173 11 155 5 -6 11 -45 15 -85z m830 -2 c-32 -27 -85 -62 -94
-62 -6 0 6 16 27 35 20 19 46 35 57 35 11 0 15 -3 10 -8z m17 -47 c-3 -19 -10
-24 -28 -23 l-23 2 21 23 c28 30 36 29 30 -2z m-410 -108 c49 -31 52 -45 14
-76 -13 -11 -20 -5 -50 41 -18 30 -41 60 -50 67 -27 22 -18 34 12 15 15 -10
48 -31 74 -47z m-61 -64 c37 -53 21 -66 -18 -16 -35 46 -63 90 -63 99 0 13 51
-40 81 -83z m154 77 c8 -13 -25 -13 -45 0 -12 8 -9 10 12 10 15 0 30 -4 33
-10z m-185 -119 c19 -17 29 -30 22 -31 -19 0 -59 28 -77 56 -16 24 -15 25 2
15 10 -5 34 -23 53 -40z m548 -26 c45 -11 82 -23 82 -27 0 -5 -26 -8 -57 -8
-57 0 -143 31 -143 52 0 11 3 10 118 -17z m-120 -25 c21 -16 52 -32 69 -36 36
-7 35 -24 -1 -24 -28 0 -83 36 -104 68 -20 30 -8 28 36 -8z m-128 -248 c0 -51
-16 -56 -28 -9 -7 24 -19 50 -27 57 -13 11 -13 15 -3 22 18 11 58 -36 58 -70z
m-65 6 c29 -62 34 -121 9 -111 -11 4 -14 13 -10 29 4 14 2 24 -4 24 -10 0 -29
37 -44 88 -6 16 -3 22 9 22 9 0 26 -21 40 -52z m-77 -42 c-3 -19 -8 -21 -58
-18 -30 2 -56 5 -58 7 -2 2 14 21 35 43 l38 40 23 -25 c13 -14 22 -35 20 -47z
m-311 -351 c37 -102 26 -120 -18 -30 -44 91 -45 98 -21 93 11 -2 25 -25 39
-63z m45 19 c10 -57 10 -110 -1 -98 -9 9 -31 102 -31 130 0 31 25 6 32 -32z
m48 -48 c-15 -71 -29 -81 -19 -13 4 29 8 61 8 72 1 14 4 16 12 8 8 -8 8 -26
-1 -67z m-596 22 c10 -40 7 -223 -4 -212 -14 14 -26 234 -13 234 6 0 13 -10
17 -22z m56 -118 c-8 -45 -25 -90 -34 -90 -4 0 10 109 19 150 7 32 8 33 16 12
5 -12 4 -44 -1 -72z m766 45 c18 -13 15 -14 -29 -15 -31 0 -65 -9 -97 -25 -60
-31 -69 -31 -44 -4 49 55 128 76 170 44z m-721 -72 c-7 -30 -45 -87 -52 -80
-5 6 45 107 53 107 4 0 3 -12 -1 -27z m768 13 c18 -8 41 -21 52 -31 19 -16 19
-16 -10 -9 -16 4 -84 10 -150 13 l-120 7 50 16 c62 21 136 22 178 4z m-393
-51 c0 -9 -75 -43 -120 -55 -25 -6 -53 -13 -62 -16 -10 -3 -18 -1 -18 4 0 8
124 54 175 65 11 3 21 5 23 6 1 0 2 -1 2 -4z m-22 -59 c-35 -30 -125 -75 -113
-56 8 13 128 90 140 90 5 -1 -7 -16 -27 -34z m45 -17 c-21 -35 -63 -77 -63
-63 0 11 68 94 76 94 3 0 -3 -14 -13 -31z m107 -41 c6 -29 22 -70 36 -91 30
-46 22 -63 -11 -24 -27 30 -45 85 -45 135 0 46 7 40 20 -20z m-737 36 c77 -11
43 -27 -40 -20 -100 9 -138 25 -62 25 31 1 77 -2 102 -5z m841 -104 c58 -78
69 -97 48 -86 -57 29 -99 85 -132 172 -16 40 3 21 84 -86z m-544 85 c0 -11
-11 -15 -42 -15 -42 1 -43 1 -18 15 33 19 60 19 60 0z m-244 -24 c-6 -10 -93
-31 -126 -31 -42 0 -17 18 38 28 78 13 94 14 88 3z m273 -17 c3 -3 0 -9 -6
-15 -12 -12 -78 4 -89 23 -6 9 84 1 95 -8z m-249 -9 c0 -5 -84 -55 -94 -55
-15 0 7 21 42 40 37 19 52 24 52 15z m400 -98 c0 -5 -17 1 -37 14 -53 31 -57
35 -49 55 6 15 12 12 46 -21 22 -22 40 -43 40 -48z m-338 -12 c-2 -36 1 -80 7
-98 l11 -32 -20 24 c-14 16 -20 38 -20 71 0 41 13 100 22 100 2 0 1 -29 0 -65z
m48 -4 c8 -34 9 -55 2 -68 -9 -16 -11 -15 -16 7 -21 106 -10 159 14 61z m88
47 c-5 -15 -48 -24 -48 -10 0 14 12 22 33 22 10 0 17 -5 15 -12z m62 -13 c0
-12 -35 -75 -41 -75 -19 0 -18 23 1 50 19 26 40 40 40 25z m20 -94 c-10 -20
-30 -29 -30 -14 0 10 33 44 37 39 3 -2 0 -14 -7 -25z m-312 -71 c29 -23 51
-45 48 -48 -9 -8 -114 60 -149 96 l-32 34 40 -20 c22 -11 64 -39 93 -62z m-21
-42 c65 -24 77 -39 21 -26 -48 10 -105 36 -114 50 -7 11 11 6 93 -24z m303 7
c-7 -9 -15 -13 -17 -11 -7 7 7 26 19 26 6 0 6 -6 -2 -15z m60 -48 c0 -19 -27
-53 -35 -45 -4 4 1 18 12 32 21 29 23 31 23 13z m-327 -28 c-18 -5 -47 -5 -70
0 -34 8 -31 9 32 9 59 0 65 -1 38 -9z m207 -49 c0 -5 -4 -10 -10 -10 -5 0 -10
5 -10 10 0 6 5 10 10 10 6 0 10 -4 10 -10z m-277 -67 c-7 -2 -21 -2 -30 0 -10
3 -4 5 12 5 17 0 24 -2 18 -5z m87 -3 c0 -5 -7 -10 -16 -10 -8 0 -12 5 -9 10
3 6 10 10 16 10 5 0 9 -4 9 -10z m468 -20 c17 -11 32 -24 32 -30 0 -13 -1 -13
-43 5 -20 8 -50 15 -67 15 -20 0 -30 5 -30 15 0 22 68 19 108 -5z m-148 0 c0
-5 -4 -10 -10 -10 -5 0 -10 5 -10 10 0 6 5 10 10 10 6 0 10 -4 10 -10z m-290
-30 c-20 -13 -33 -13 -25 0 3 6 14 10 23 10 15 0 15 -2 2 -10z m435 -30 c22
-10 58 -37 80 -60 l40 -42 -62 31 c-35 17 -88 41 -118 52 -30 11 -55 24 -55
28 0 26 44 23 115 -9z m-355 15 c0 -2 -10 -10 -22 -16 -21 -11 -22 -11 -9 4
13 16 31 23 31 12z m72 -115 c-2 -38 1 -84 7 -102 l11 -33 -26 29 c-22 25 -25
36 -21 75 4 41 22 101 30 101 1 0 1 -31 -1 -70z m41 -2 c-3 -7 -1 -8 5 -4 7 4
12 1 12 -6 1 -7 16 -53 34 -101 28 -74 31 -85 14 -70 -43 39 -70 102 -74 171
-3 52 -2 62 6 44 5 -13 7 -29 3 -34z m89 22 c5 -32 -6 -41 -16 -14 -9 23 -7
44 3 44 5 0 11 -13 13 -30z m-318 -27 c-11 -65 -23 -73 -24 -15 0 40 3 52 15
52 13 0 15 -7 9 -37z"/>
<path d="M4666 2470 c-67 -60 -97 -187 -73 -318 l7 -42 -48 24 c-111 56 -259
73 -320 35 -23 -14 -33 -8 -45 25 -5 15 -74 8 -113 -10 -54 -26 -130 -109
-166 -181 l-31 -64 -40 63 c-45 72 -190 218 -216 218 -26 0 -68 -50 -80 -95
-6 -22 -11 -63 -11 -91 l0 -51 -57 9 c-66 11 -111 -5 -133 -47 -8 -14 -28 -27
-53 -33 -34 -9 -47 -8 -78 9 -46 23 -80 24 -145 4 -27 -8 -71 -15 -97 -15 -55
0 -70 -19 -41 -52 29 -33 142 -103 214 -133 36 -15 67 -29 68 -30 2 -2 -26
-39 -63 -82 -143 -168 -196 -314 -87 -240 20 14 61 30 90 36 72 15 107 35 136
77 l24 36 30 -41 c27 -37 52 -60 141 -129 33 -25 48 -22 99 15 33 24 38 20 26
-24 -4 -16 -16 -23 -49 -27 -58 -9 -84 -28 -66 -50 7 -8 23 -18 34 -22 12 -4
47 -30 77 -59 66 -62 114 -76 175 -51 21 9 38 16 39 16 1 0 1 -31 1 -69 0 -92
19 -118 106 -148 40 -13 72 -32 85 -48 12 -15 27 -24 33 -21 20 13 11 63 -25
140 -20 42 -39 97 -42 121 -4 44 -4 45 24 45 16 0 56 -12 89 -26 139 -60 210
-56 141 9 -20 19 -36 40 -36 46 0 7 -11 36 -25 65 -28 58 -54 76 -114 76 -38
0 -39 1 -46 46 -7 52 -35 105 -78 151 l-30 32 24 28 c23 28 24 28 56 12 49
-25 82 -14 104 35 35 77 19 147 -45 204 l-37 32 64 -3 c70 -2 97 11 97 47 0
11 7 30 15 40 8 11 15 32 15 47 0 15 4 30 9 33 5 3 7 15 4 26 -9 33 15 22 43
-20 15 -22 30 -40 34 -40 4 0 21 -14 38 -30 18 -16 38 -30 45 -30 8 0 22 -9
32 -20 22 -24 45 -19 95 19 l35 28 0 -75 0 -74 50 -44 c57 -51 90 -56 125 -19
18 20 24 38 26 91 2 37 5 68 7 70 2 2 30 -5 62 -16 74 -25 88 -25 121 3 25 21
26 27 20 71 -5 31 -18 58 -38 82 -38 43 -58 54 -117 63 l-46 7 50 26 c59 31
80 60 65 88 -5 10 -10 32 -10 48 0 16 -7 35 -15 42 -8 7 -15 23 -15 36 0 13
-4 24 -10 24 -5 0 -10 7 -10 15 0 8 -4 15 -9 15 -6 0 -16 12 -23 27 -21 43
-52 47 -92 13z m-1221 -530 c-16 -11 -39 -20 -50 -20 -19 1 -19 2 4 20 13 11
35 20 50 20 l26 0 -30 -20z m95 -3 c0 -22 -46 -42 -71 -31 -21 10 -21 11 12
27 41 20 59 21 59 4z m-330 -64 c0 -20 -16 -8 -23 17 -4 17 -3 19 9 9 8 -6 14
-18 14 -26z m-84 6 c29 -18 104 -109 90 -109 -8 0 -99 81 -119 106 -23 30 -15
30 29 3z m-17 -59 c32 -18 70 -43 83 -57 l23 -25 -25 7 c-41 12 -135 64 -171
95 l-34 29 32 -9 c18 -4 59 -23 92 -40z m141 -31 c0 -6 -4 -7 -10 -4 -5 3 -10
11 -10 16 0 6 5 7 10 4 6 -3 10 -11 10 -16z m263 -59 c-5 -19 -23 -29 -23 -12
0 7 20 32 26 32 1 0 0 -9 -3 -20z m-59 -61 c37 -8 60 -18 67 -30 15 -28 -15
-25 -86 10 -67 33 -64 36 19 20z m-55 -58 c-7 -2 -20 7 -30 20 -29 38 -22 46
11 14 19 -18 26 -31 19 -34z m-190 7 c-21 -40 -96 -142 -120 -163 l-23 -20 24
40 c40 68 115 165 127 165 2 0 -2 -10 -8 -22z m11 -61 c-12 -31 -30 -66 -41
-79 l-19 -23 11 30 c22 62 63 148 66 138 2 -6 -6 -35 -17 -66z m52 17 c-1 -25
-7 -54 -13 -63 -8 -12 -9 -6 -5 24 3 22 6 53 6 69 0 16 3 26 7 23 3 -4 5 -28
5 -53z m418 -39 c0 -9 -6 -12 -15 -9 -8 4 -15 10 -15 15 0 5 7 9 15 9 8 0 15
-7 15 -15z m130 -215 c9 -16 8 -20 -5 -20 -8 0 -15 9 -15 20 0 11 2 20 5 20 2
0 9 -9 15 -20z m294 -41 c37 -29 32 -41 -11 -23 -26 11 -52 14 -90 9 -60 -7
-68 0 -20 20 46 20 90 18 121 -6z m-14 -49 c30 -8 120 -79 120 -95 0 -3 -26 8
-57 23 -32 16 -88 39 -125 51 -80 27 -91 47 -20 36 26 -3 63 -10 82 -15z
m-206 -225 c7 -17 5 -17 -13 4 -22 24 -28 90 -13 141 5 18 9 5 13 -50 3 -41 9
-84 13 -95z m69 12 c33 -84 34 -87 11 -66 -34 32 -61 96 -68 159 -6 54 -6 54
8 25 8 -16 30 -70 49 -118z"/>
<path d="M1977 2362 c-13 -27 -34 -47 -80 -73 -34 -20 -68 -47 -75 -60 -13
-24 -11 -93 4 -134 3 -11 -7 0 -23 25 -17 25 -44 58 -61 74 -18 16 -37 45 -43
63 -7 23 -16 33 -27 31 -34 -7 -47 -57 -50 -201 -3 -102 -7 -140 -17 -143 -7
-3 -56 4 -109 15 -110 24 -223 27 -251 8 -17 -13 -16 -15 10 -33 16 -10 59
-49 95 -86 75 -74 104 -85 195 -74 l53 6 -15 -43 c-18 -53 -11 -112 17 -142
12 -13 43 -31 68 -40 66 -24 91 -42 102 -71 12 -31 27 -31 42 2 10 21 7 39
-14 107 -34 106 -41 142 -33 167 6 18 12 20 43 14 56 -10 82 -30 82 -64 0 -42
20 -130 37 -163 18 -36 35 -30 51 17 18 57 49 95 90 112 34 14 35 16 20 28
-13 10 -18 27 -18 65 0 32 -8 67 -20 91 -20 38 -20 40 -2 40 26 0 62 -41 97
-113 36 -72 94 -111 158 -105 20 2 37 2 37 0 0 -2 -8 -17 -17 -35 -23 -45 -33
-105 -21 -139 6 -16 36 -48 69 -74 48 -37 59 -50 59 -75 0 -19 5 -29 15 -29
27 0 35 37 32 167 -1 70 1 133 6 140 13 20 63 -5 132 -68 65 -59 101 -77 131
-65 15 6 14 9 -6 31 -19 20 -24 40 -30 110 -8 104 -26 129 -106 145 l-53 11
20 39 c37 71 36 112 -4 193 -20 40 -37 85 -39 102 -5 46 -33 44 -57 -3 -23
-45 -56 -173 -66 -252 l-6 -56 -102 50 -103 50 17 32 c9 18 19 61 23 95 6 47
13 66 33 85 54 50 -17 61 -87 13 -69 -46 -137 -79 -165 -79 -23 0 -25 4 -25
44 0 25 9 83 20 130 20 85 19 126 -4 145 -9 8 -17 1 -29 -27z m-1 -78 c-8 -27
-22 -92 -32 -144 -12 -68 -19 -89 -25 -75 -10 27 -10 112 0 158 9 38 58 123
67 115 2 -3 -3 -27 -10 -54z m-80 -51 c-16 -54 -16 -75 -2 -129 8 -32 13 -60
11 -62 -2 -2 -13 10 -24 29 -29 47 -35 100 -17 143 15 36 42 52 32 19z m-206
-124 c0 -47 -4 -70 -15 -79 -13 -11 -15 -5 -15 48 0 33 3 74 6 92 10 50 24 15
24 -61z m60 -9 c0 -29 -4 -40 -15 -40 -18 0 -18 7 -4 49 15 41 19 39 19 -9z
m471 12 c-21 -39 -91 -91 -142 -106 -101 -30 -90 -14 32 50 49 27 95 54 101
61 15 19 20 16 9 -5z m276 -79 c-8 -69 -31 -151 -50 -178 -13 -17 -14 -12 -6
41 11 68 47 194 56 194 3 0 3 -26 0 -57z m-334 -55 c-25 -25 -119 -37 -149
-19 -16 8 -10 10 31 11 28 0 68 9 90 19 48 22 57 18 28 -11z m364 -40 c-13
-29 -34 -64 -46 -78 l-21 -25 21 55 c25 67 61 128 67 112 2 -7 -7 -35 -21 -64z
m-682 52 c3 -5 2 -10 -4 -10 -5 0 -13 5 -16 10 -3 6 -2 10 4 10 5 0 13 -4 16
-10z m-95 -25 c-7 -8 -17 -15 -22 -15 -6 0 -5 7 2 15 7 8 17 15 22 15 6 0 5
-7 -2 -15z m87 -11 c-3 -3 -12 -4 -19 -1 -8 3 -5 6 6 6 11 1 17 -2 13 -5z
m-307 -39 l55 -14 -80 4 c-44 2 -100 11 -125 19 l-45 16 70 -6 c39 -3 95 -11
125 -19z m1035 -22 c-20 -31 -65 -72 -80 -73 -5 0 13 23 40 50 56 57 65 62 40
23z m-675 -13 c0 -5 -15 -10 -32 -9 -28 0 -30 2 -13 9 28 12 45 12 45 0z
m-355 -10 c-3 -5 -39 -9 -78 -9 -58 1 -65 3 -37 9 54 11 122 11 115 0z m729
-20 c28 -11 61 -27 72 -35 17 -12 13 -12 -31 -1 -65 18 -102 33 -128 52 -22
16 -22 16 6 10 15 -4 52 -15 81 -26z m-310 4 c3 -8 2 -12 -4 -9 -6 3 -10 10
-10 16 0 14 7 11 14 -7z m-96 -10 c13 -4 22 -14 22 -25 0 -24 -5 -23 -60 6
-44 24 -44 24 -15 24 17 1 40 -2 53 -5z m-303 -13 c5 -10 -65 -35 -73 -27 -4
5 48 35 60 36 4 0 9 -4 13 -9z m385 -43 c0 -5 -4 -8 -10 -8 -5 0 -10 10 -10
23 0 18 2 19 10 7 5 -8 10 -18 10 -22z m94 16 c3 -8 2 -12 -4 -9 -6 3 -10 10
-10 16 0 14 7 11 14 -7z m-375 -49 c-6 -22 -8 -63 -5 -92 7 -62 1 -67 -20 -18
-15 37 -7 94 19 136 16 26 18 18 6 -26z m334 5 c8 -29 -12 -24 -23 6 -13 34
-13 39 4 25 8 -6 16 -21 19 -31z m322 33 c40 -6 40 -7 11 -14 -26 -7 -123 4
-134 16 -8 7 76 6 123 -2z m-595 -97 c7 -32 20 -84 31 -115 l19 -56 -25 30
c-42 51 -55 89 -55 162 1 77 11 70 30 -21z m887 54 c20 0 73 -54 73 -75 0 -13
-7 -10 -34 13 -23 20 -55 35 -93 43 -58 13 -58 13 -23 20 19 3 41 5 48 3 8 -2
20 -4 29 -4z m-268 -10 c-20 -11 -99 -25 -99 -17 0 8 59 25 90 26 20 0 22 -1
9 -9z m-390 -73 c-1 -36 -2 -38 -9 -17 -12 36 -12 72 0 65 6 -3 10 -25 9 -48z
m666 9 c34 -23 59 -50 79 -85 15 -29 26 -54 23 -57 -2 -2 -22 15 -43 38 -21
24 -54 55 -74 70 -19 14 -48 38 -65 53 l-30 26 30 -6 c17 -3 53 -21 80 -39z
m-226 -36 c-10 -28 -19 -71 -19 -97 0 -37 -3 -44 -12 -35 -21 21 -13 87 16
136 15 25 28 46 30 46 2 0 -4 -23 -15 -50z m45 -228 c-1 -2 -9 18 -18 44 -19
57 -20 96 -4 166 l13 53 6 -130 c3 -71 4 -131 3 -133z"/>
<path d="M6770 2346 c-6 -8 -21 -16 -33 -18 -12 -2 -24 -12 -27 -23 -3 -11
-14 -33 -24 -48 -19 -28 -19 -30 1 -99 18 -61 19 -68 4 -63 -54 23 -76 26
-116 21 -57 -9 -103 -41 -142 -100 -41 -60 -43 -93 -7 -106 44 -17 127 -11
204 15 40 14 76 25 80 25 3 0 -2 -30 -11 -67 -10 -38 -18 -92 -18 -120 -1 -51
-2 -53 -28 -53 -16 0 -52 -11 -82 -25 -29 -14 -72 -28 -95 -31 -72 -11 -76
-16 -72 -87 3 -48 8 -64 23 -71 10 -5 43 -39 75 -76 l56 -67 -63 -12 c-133
-24 -250 -89 -243 -135 4 -25 58 -53 135 -69 44 -9 62 -8 106 6 28 9 73 19 98
22 44 5 46 5 60 -27 8 -18 23 -35 34 -37 11 -2 31 -12 44 -22 18 -14 28 -16
43 -8 11 6 26 8 33 5 8 -3 25 4 38 15 32 24 41 24 27 0 -25 -48 5 -68 54 -36
35 23 107 33 145 20 l34 -11 -29 -23 c-40 -31 -84 -99 -84 -129 0 -14 16 -54
36 -90 29 -51 35 -71 31 -98 -5 -28 -3 -34 12 -34 29 0 46 29 80 130 17 52 41
108 54 123 21 26 23 27 45 11 12 -8 43 -58 68 -110 43 -91 71 -121 100 -110
11 4 12 10 4 25 -15 29 -13 54 10 106 11 26 23 64 26 84 5 33 2 43 -26 75 -18
20 -46 44 -62 52 l-29 15 41 30 c25 18 49 48 61 74 23 52 60 79 101 73 42 -7
49 19 14 49 -15 12 -40 23 -55 23 -15 0 -35 6 -44 13 -14 10 -15 18 -6 50 6
22 8 45 5 53 -5 13 -9 13 -35 0 -16 -9 -40 -29 -55 -47 -26 -30 -27 -31 -52
-15 l-25 17 22 30 c12 17 49 47 82 67 86 53 137 100 137 128 0 23 -1 23 -37 8
-33 -14 -42 -14 -99 0 -35 9 -78 16 -96 16 -18 1 -49 9 -68 20 l-35 18 30 7
c41 9 85 26 86 34 9 42 4 161 -7 185 -8 16 -14 37 -14 47 0 10 -9 23 -20 29
-58 31 -163 -84 -186 -205 -10 -56 -29 -63 -67 -28 -18 17 -48 41 -68 54 l-35
24 14 48 c8 28 19 47 28 47 8 0 24 10 36 23 13 12 32 27 43 32 11 6 20 20 20
30 0 11 4 26 8 33 14 21 -3 102 -25 113 -32 17 -131 -15 -180 -59 -24 -20 -23
-10 7 73 27 78 31 123 13 147 -18 22 -92 32 -108 14z m95 -396 c-3 -5 -10 -10
-16 -10 -5 0 -9 5 -9 10 0 6 7 10 16 10 8 0 12 -4 9 -10z m35 -4 c0 -2 -6 -18
-14 -36 -10 -25 -14 -28 -19 -16 -7 17 11 56 25 56 5 0 8 -2 8 -4z m-220 -287
c10 -6 5 -7 -15 -3 -16 4 -34 11 -40 16 -11 12 31 1 55 -13z m657 -50 c-14 -8
-22 -8 -30 0 -8 8 -3 11 19 11 25 -1 27 -2 11 -11z m113 -10 c-19 -12 -55 -35
-79 -51 -47 -32 -56 -31 -47 5 3 15 19 29 43 40 53 22 65 25 93 26 23 1 23 -1
-10 -20z m-320 -139 c0 -5 -2 -10 -4 -10 -3 0 -8 5 -11 10 -3 6 -1 10 4 10 6
0 11 -4 11 -10z m-125 -60 c3 -5 12 -10 20 -10 8 0 26 -5 41 -10 25 -10 26
-12 12 -27 -15 -14 -19 -14 -46 5 -36 26 -58 52 -44 52 6 0 14 -4 17 -10z
m405 -24 c0 -3 -4 -8 -10 -11 -5 -3 -10 -1 -10 4 0 6 5 11 10 11 6 0 10 -2 10
-4z m-111 -35 c21 -13 -5 -24 -29 -11 -11 6 -20 13 -20 15 0 8 34 5 49 -4z
m-33 -58 c-4 -4 -16 3 -26 17 -29 37 -24 49 7 18 15 -15 23 -31 19 -35z m104
27 c0 -12 -28 -25 -36 -17 -9 9 6 27 22 27 8 0 14 -5 14 -10z m120 -20 c12 -8
11 -10 -7 -10 -13 0 -23 5 -23 10 0 13 11 13 30 0z m-340 -15 c0 -8 -4 -15
-10 -15 -5 0 -10 7 -10 15 0 8 5 15 10 15 6 0 10 -7 10 -15z m-64 -42 c-10
-10 -19 5 -10 18 6 11 8 11 12 0 2 -7 1 -15 -2 -18z m144 -12 c0 -9 -5 -23
-10 -31 -8 -13 -11 -13 -25 1 -13 12 -14 21 -5 43 9 23 13 26 25 16 8 -7 15
-20 15 -29z m95 29 c-3 -5 -10 -10 -16 -10 -5 0 -9 5 -9 10 0 6 7 10 16 10 8
0 12 -4 9 -10z m52 -16 c-3 -3 -12 -4 -19 -1 -8 3 -5 6 6 6 11 1 17 -2 13 -5z
m-347 -14 c0 -5 -2 -10 -4 -10 -3 0 -8 5 -11 10 -3 6 -1 10 4 10 6 0 11 -4 11
-10z m40 -26 c0 -8 -5 -12 -10 -9 -6 4 -8 11 -5 16 9 14 15 11 15 -7z m340 -9
c0 -10 -84 -45 -105 -44 -11 0 5 11 35 24 59 25 70 28 70 20z m-505 -15 c3 -5
1 -10 -4 -10 -6 0 -11 5 -11 10 0 6 2 10 4 10 3 0 8 -4 11 -10z m55 -35 c-7
-9 -15 -13 -18 -10 -3 2 1 11 8 20 7 9 15 13 18 10 3 -2 -1 -11 -8 -20z m399
-104 c41 -28 63 -65 59 -97 l-3 -29 -23 42 c-13 26 -43 57 -75 79 -52 35 -52
36 -17 29 19 -4 46 -14 59 -24z m-238 -37 c-24 -25 -49 -61 -57 -81 -18 -41
-29 -38 -19 6 8 38 39 78 79 102 44 27 44 25 -3 -27z m246 -61 c15 -27 26 -63
29 -100 l5 -58 -18 35 c-9 19 -22 46 -29 60 -6 14 -28 54 -48 90 -19 36 -36
69 -36 74 0 17 71 -58 97 -101z m-223 -5 c-15 -34 -35 -88 -45 -118 l-18 -55
0 52 c-1 60 9 90 52 157 40 63 46 46 11 -36z"/>
<path d="M5437 2263 c-4 -3 -7 -30 -7 -59 l0 -53 -37 -6 c-131 -22 -161 -50
-170 -157 -3 -32 -7 -58 -8 -58 -1 0 -19 7 -38 15 -74 31 -157 10 -220 -56
-16 -17 -42 -32 -58 -36 -16 -3 -34 -12 -41 -20 -17 -21 17 -47 83 -64 39 -10
54 -20 62 -39 6 -14 20 -35 31 -48 16 -18 21 -42 26 -110 3 -48 3 -102 0 -120
l-5 -33 -54 46 c-68 58 -124 91 -184 107 -42 11 -49 10 -64 -5 -17 -17 -17
-21 8 -92 l25 -74 -27 -6 c-39 -9 -54 -29 -34 -48 13 -14 13 -18 0 -44 -8 -15
-15 -41 -15 -58 -1 -30 -1 -30 -23 12 -29 55 -60 78 -86 63 -11 -5 -29 -10
-41 -10 -12 0 -31 -5 -43 -12 -12 -7 -27 -13 -34 -14 -6 -1 -32 -16 -57 -33
-70 -48 -61 -92 27 -139 47 -25 62 -27 160 -27 59 0 107 -2 107 -5 0 -4 -4
-10 -10 -16 -5 -5 -20 -39 -35 -77 -33 -89 -35 -191 -4 -231 11 -14 26 -26 33
-26 13 0 99 60 105 73 2 5 16 22 32 38 16 16 29 36 29 43 0 8 7 16 15 20 23 8
18 51 -10 84 -14 17 -25 31 -25 33 0 2 26 5 57 6 32 1 76 3 98 4 30 2 50 -4
77 -23 20 -13 57 -31 83 -38 39 -11 50 -19 61 -47 18 -42 30 -42 43 0 10 28 7
45 -19 115 -39 108 -39 121 1 88 30 -25 89 -36 89 -17 0 6 10 21 23 35 21 23
27 24 60 15 21 -5 42 -20 48 -32 7 -12 27 -40 45 -62 l32 -40 -43 -2 c-24 -1
-54 -7 -67 -13 -73 -38 -122 -127 -116 -212 3 -42 4 -43 41 -46 51 -4 109 25
185 93 33 30 63 55 66 55 3 0 6 -15 6 -33 0 -76 54 -221 98 -260 11 -10 29
-17 39 -15 25 4 64 89 70 153 7 69 -9 115 -61 169 l-43 44 56 13 c59 14 91 38
91 68 0 10 7 22 16 25 12 5 14 15 8 53 -3 27 -12 55 -19 63 -6 8 -15 23 -18
33 -16 43 -95 6 -154 -73 l-38 -51 -7 88 c-10 113 -27 139 -88 135 -34 -2 -49
-10 -75 -38 -18 -20 -35 -32 -38 -27 -2 4 -12 34 -21 65 -18 62 -52 98 -92 98
-29 0 -30 9 -4 61 l21 40 52 -46 c42 -36 59 -45 89 -45 28 0 41 6 53 23 17 26
23 101 11 135 -7 22 -6 23 16 16 12 -4 43 -13 67 -19 24 -6 48 -20 54 -31 25
-47 57 -45 57 2 0 30 7 43 43 75 49 45 57 47 57 17 0 -32 39 -97 73 -122 26
-19 32 -19 113 -8 75 11 89 11 110 -3 34 -22 44 -19 44 16 0 23 -9 38 -32 57
-69 57 -158 149 -158 165 0 22 71 45 165 51 92 6 141 21 155 46 8 15 4 19 -34
24 -28 4 -52 16 -67 32 -39 42 -106 84 -134 84 -27 0 -98 -32 -128 -58 -20
-18 -19 -19 -36 38 -18 62 -14 145 10 192 43 84 -26 73 -139 -24 -40 -35 -59
-35 -107 -2 -21 14 -44 23 -51 20 -19 -7 -17 -53 5 -102 10 -23 15 -47 11 -54
-5 -7 -21 16 -45 63 -60 123 -155 234 -178 210z m132 -197 c39 -63 40 -77 0
-34 -32 34 -69 98 -69 119 0 14 26 -19 69 -85z m315 62 c-17 -30 -39 -48 -58
-48 -18 1 -16 4 14 30 37 31 56 39 44 18z m-466 -26 c-32 -71 -113 -213 -116
-203 -9 27 40 153 75 191 42 47 58 51 41 12z m-78 -4 c0 -2 -11 -25 -25 -52
-17 -34 -25 -66 -25 -103 0 -64 -16 -70 -25 -9 -9 58 1 100 32 136 20 25 43
39 43 28z m185 -52 c20 -15 20 -15 -1 -16 -12 0 -29 11 -39 26 -16 24 -16 25
2 15 10 -5 27 -16 38 -25z m183 -1 c-3 -3 -9 2 -12 12 -6 14 -5 15 5 6 7 -7
10 -15 7 -18z m42 -34 c0 -12 -20 -25 -27 -18 -7 7 6 27 18 27 5 0 9 -4 9 -9z
m70 -6 c0 -8 -4 -15 -10 -15 -5 0 -10 7 -10 15 0 8 5 15 10 15 6 0 10 -7 10
-15z m-410 -59 l-23 -21 19 33 c10 18 20 28 23 21 2 -6 -7 -21 -19 -33z m360
35 c0 -5 -7 -11 -15 -15 -15 -5 -20 5 -8 17 9 10 23 9 23 -2z m120 -61 c-4
-23 -10 -44 -14 -47 -8 -8 -8 50 0 71 12 31 21 15 14 -24z m-100 20 c0 -5 -10
-10 -22 -10 -19 0 -20 2 -8 10 19 13 30 13 30 0z m47 4 c-3 -3 -12 -4 -19 -1
-8 3 -5 6 6 6 11 1 17 -2 13 -5z m-669 -48 c65 -62 48 -67 -19 -6 -30 27 -48
49 -41 50 7 0 34 -20 60 -44z m981 25 c9 -6 -2 -11 -36 -16 -30 -4 -74 -21
-107 -40 -31 -19 -56 -31 -56 -27 0 10 59 66 85 80 24 14 94 15 114 3z m-299
-44 c0 -5 -4 -5 -10 -2 -5 3 -10 14 -10 23 0 15 2 15 10 2 5 -8 10 -19 10 -23z
m-30 -9 c0 -12 -1 -19 -3 -17 -1 2 -9 12 -16 22 -12 14 -11 17 3 17 10 0 16
-8 16 -22z m435 -8 c28 -13 25 -14 -65 -21 -52 -3 -124 -9 -160 -13 l-65 -7
30 17 c76 44 191 54 260 24z m-511 -31 c19 -15 24 -25 17 -32 -8 -8 -18 -4
-36 13 -43 41 -28 56 19 19z m-774 -9 c0 -5 -4 -10 -10 -10 -5 0 -10 5 -10 10
0 6 5 10 10 10 6 0 10 -4 10 -10z m740 -38 c-14 -5 -30 16 -30 38 1 10 7 7 21
-10 14 -17 17 -26 9 -28z m-73 -19 c4 -11 -26 -27 -35 -19 -2 3 -2 12 2 21 6
18 27 16 33 -2z m93 -28 c-14 -17 -30 -20 -30 -6 0 5 8 12 18 14 9 3 19 5 21
6 2 0 -2 -6 -9 -14z m-70 -29 c0 -8 -21 -21 -47 -30 -70 -24 -75 -19 -13 14
66 35 60 33 60 16z m260 -26 c6 -21 26 -60 45 -85 38 -49 25 -63 -17 -17 -27
29 -48 80 -48 118 0 35 8 29 20 -16z m85 -20 c22 -23 62 -60 88 -81 57 -45 49
-49 -26 -13 -52 24 -91 66 -126 132 -11 21 -11 23 6 14 10 -6 36 -29 58 -52z
m-265 35 c-7 -9 -15 -13 -17 -11 -7 7 7 26 19 26 6 0 6 -6 -2 -15z m-71 -48
c-2 -1 -13 -9 -24 -17 -19 -14 -19 -14 -6 3 7 9 18 17 24 17 6 0 8 -1 6 -3z
m83 -19 c-7 -7 -12 -8 -12 -2 0 14 12 26 19 19 2 -3 -1 -11 -7 -17z m-375
-280 c8 -6 19 -20 24 -30 10 -18 9 -18 -19 -4 -16 8 -51 21 -78 27 -44 12 -47
14 -24 20 31 9 78 3 97 -13z m-382 -48 c-3 -5 -18 -10 -33 -9 -24 0 -25 1 -7
9 28 12 47 12 40 0z m388 -21 c29 -15 66 -49 79 -72 9 -18 8 -18 -25 0 -19 10
-47 33 -62 51 -29 34 -27 39 8 21z m-209 -140 c9 -38 25 -93 36 -121 11 -29
18 -53 16 -55 -9 -10 -68 101 -72 134 -2 21 -5 57 -8 81 -6 64 10 41 28 -39z"/>
<path d="M8110 2015 c-7 -8 -25 -15 -39 -15 -32 0 -60 -27 -91 -89 l-22 -45
-15 30 c-20 39 -62 82 -95 100 -59 31 -223 9 -235 -32 -2 -6 11 -33 29 -60 28
-42 47 -56 125 -94 50 -25 92 -47 92 -50 0 -3 -33 -27 -75 -53 -76 -49 -149
-128 -161 -175 -12 -49 54 -65 167 -41 66 14 111 53 141 124 22 49 39 70 39
46 0 -4 20 -29 44 -55 37 -40 47 -46 70 -40 16 4 32 1 41 -6 13 -11 20 -9 38
9 13 11 28 21 34 21 14 0 63 64 63 83 0 33 -106 96 -162 97 -16 0 -28 3 -28 8
0 4 33 24 74 45 118 60 135 91 81 150 -19 21 -40 35 -45 32 -6 -3 -17 1 -26 9
-19 20 -28 20 -44 1z"/>
<path d="M1340 1709 c-44 -27 -150 -138 -202 -211 l-40 -57 -58 77 c-86 115
-163 182 -208 182 -22 0 -24 -3 -17 -32 4 -18 8 -74 9 -124 1 -84 3 -93 30
-129 16 -21 46 -45 68 -53 21 -8 38 -18 37 -21 0 -3 -19 -20 -42 -36 -49 -36
-87 -89 -87 -122 0 -13 14 -51 31 -85 29 -57 32 -79 18 -127 -2 -7 1 -15 7
-18 24 -8 64 42 112 139 52 108 81 144 107 135 21 -9 52 -62 76 -135 23 -70
61 -122 90 -122 16 0 18 5 13 43 -5 36 -1 53 30 111 47 88 46 114 -1 164 -21
21 -47 44 -58 51 -13 8 -16 14 -8 17 6 3 29 18 51 34 57 41 82 99 82 191 1 43
6 84 14 98 15 27 11 51 -8 51 -6 0 -27 -10 -46 -21z m-16 -91 c-20 -38 -156
-178 -174 -178 -6 0 -2 14 11 33 26 36 163 177 173 177 4 0 -1 -15 -10 -32z
m-335 -95 c28 -31 51 -61 51 -66 0 -24 -125 97 -152 147 -18 33 44 -17 101
-81z m351 18 c0 -21 -135 -111 -166 -111 -15 0 142 118 159 119 4 1 7 -3 7 -8z
m-350 -80 c25 -17 39 -31 32 -31 -23 0 -106 47 -132 75 l-25 27 40 -20 c22
-12 60 -35 85 -51z m330 -16 c0 -13 -88 -45 -120 -44 -31 1 -27 4 35 24 75 26
85 28 85 20z m-360 -26 c27 -6 50 -14 50 -19 0 -9 -84 6 -108 19 -22 14 -4 13
58 0z m247 -110 c15 -5 43 -24 61 -42 27 -26 32 -38 31 -76 l0 -46 -25 51
c-16 33 -41 63 -70 83 -58 42 -57 53 3 30z m-177 -3 c0 -2 -16 -14 -35 -26
-20 -12 -52 -45 -70 -73 -32 -47 -35 -49 -35 -25 0 33 47 89 92 111 33 17 48
21 48 13z m215 -120 c18 -36 25 -66 25 -108 0 -32 -4 -58 -8 -58 -5 0 -14 22
-21 50 -7 27 -28 80 -46 117 -18 38 -36 79 -40 93 -7 24 -5 23 29 -10 20 -19
47 -57 61 -84z m-231 36 c-16 -26 -45 -81 -66 -122 l-38 -75 6 50 c9 69 24
101 75 162 51 61 63 53 23 -15z"/>
<path d="M9572 1578 c-6 -6 -21 -16 -34 -22 -13 -6 -24 -23 -26 -36 -2 -14 -8
-29 -13 -34 -13 -15 -11 -63 5 -94 7 -15 16 -36 20 -48 6 -20 4 -21 -45 -16
-76 7 -125 -13 -170 -71 -21 -26 -44 -67 -51 -89 -11 -36 -10 -42 8 -55 33
-25 129 -11 213 31 40 20 73 36 75 36 1 0 2 -55 2 -122 -1 -104 2 -129 19
-163 27 -55 54 -57 94 -8 77 93 90 174 43 265 l-29 54 57 -4 c56 -4 58 -3 104
40 32 31 45 50 40 62 -3 9 -1 22 4 29 11 13 -1 62 -21 95 -19 28 -105 -1 -171
-58 -35 -32 -37 -32 -32 -9 32 137 34 190 10 210 -20 16 -88 21 -102 7z"/>
</g>
</svg>
