<?xml version="1.0" standalone="no"?>
<!DOCTYPE svg PUBLIC "-//W3C//DTD SVG 20010904//EN"
 "http://www.w3.org/TR/2001/REC-SVG-20010904/DTD/svg10.dtd">
<svg version="1.0" xmlns="http://www.w3.org/2000/svg"
 width="1280.000000pt" height="914.000000pt" viewBox="0 0 1280.000000 914.000000"
 preserveAspectRatio="xMidYMid meet">
<metadata>
Created by potrace 1.15, written by Peter Selinger 2001-2017
</metadata>
<g transform="translate(0.000000,914.000000) scale(0.100000,-0.100000)"
fill="#ffffff" stroke="none">
<path d="M1735 8634 c-93 -52 -174 -99 -178 -103 -4 -4 -11 -100 -15 -212 l-7
-204 -176 -99 -176 -100 -7 -104 c-3 -58 -6 -151 -6 -208 l0 -102 173 -105
172 -106 0 -207 0 -208 168 -100 167 -101 0 -145 c0 -80 -3 -175 -6 -212 l-7
-66 -173 -97 -173 -97 -6 -42 c-3 -22 -5 -117 -3 -210 l3 -170 168 -100 167
-101 -2 -205 -3 -204 -165 -93 -165 -92 -6 -103 c-4 -57 -7 -150 -8 -208 l-1
-105 -178 -100 -177 -100 -9 -197 c-5 -108 -6 -203 -3 -210 2 -8 82 -60 176
-117 l171 -102 -6 -207 -6 -207 171 -100 171 -100 0 -192 c0 -105 -4 -202 -9
-215 -6 -16 -62 -52 -179 -118 l-170 -94 -7 -111 c-3 -60 -5 -155 -3 -209 l3
-100 170 -102 170 -102 0 -208 0 -208 170 -102 170 -103 40 23 c22 13 103 58
179 101 l139 78 41 -22 c23 -12 102 -59 176 -104 l135 -82 0 -209 0 -210 170
-102 c144 -86 173 -101 190 -92 11 6 91 51 179 100 92 52 164 87 173 83 9 -3
87 -49 175 -101 122 -73 164 -94 178 -88 9 5 90 50 178 99 139 78 161 94 166
119 3 16 6 108 6 205 l0 177 181 102 181 102 172 -103 171 -103 -3 -210 -3
-209 174 -103 174 -102 176 100 177 100 175 -106 c96 -58 179 -104 183 -102
34 14 344 193 349 201 4 6 9 101 12 211 l6 200 173 97 173 98 157 -95 c86 -52
162 -94 167 -94 6 0 87 44 180 96 94 53 175 97 180 97 11 0 313 -179 334 -198
10 -10 13 -56 12 -218 l-2 -205 168 -101 c93 -56 173 -101 179 -101 6 0 87 43
180 96 93 53 174 97 179 97 6 0 86 -46 179 -102 l168 -102 172 97 c94 53 175
100 180 105 5 5 12 99 15 210 l6 201 178 100 178 101 171 -104 170 -104 -1
-206 -2 -207 168 -102 c92 -57 173 -103 178 -103 6 0 88 44 183 98 l173 98
175 -107 176 -106 177 100 178 100 7 92 c3 50 6 143 6 207 l0 116 179 100 179
100 7 140 c4 77 5 171 3 209 l-3 70 -170 103 -170 104 3 207 4 207 -169 101
-168 100 -3 120 c-2 65 0 160 3 211 l7 92 173 98 c152 85 174 101 179 126 3
16 6 111 6 211 l0 181 -170 100 -170 100 3 205 2 205 160 92 c88 50 163 93
167 95 3 2 10 96 14 210 l7 208 162 90 c89 50 169 96 178 103 13 10 17 48 22
217 l6 205 -175 104 -176 104 6 206 6 206 -168 101 -169 100 -2 195 c-2 140 1
200 10 217 7 13 79 60 177 115 l165 92 6 60 c4 33 7 128 8 210 l0 150 -172
102 -172 103 3 207 3 208 -174 103 -174 103 -177 -101 c-97 -55 -180 -100
-184 -100 -4 1 -83 47 -177 103 l-170 103 3 210 3 209 -174 103 -174 103 -178
-101 c-98 -55 -180 -100 -182 -100 -3 0 -76 43 -163 95 -86 52 -165 97 -174
101 -10 4 -79 -30 -188 -91 -95 -54 -175 -99 -178 -102 -3 -3 -7 -95 -10 -206
l-5 -202 -179 -102 -178 -101 -172 103 -171 103 3 209 4 208 -168 100 c-92 55
-170 101 -175 103 -4 2 -87 -42 -184 -96 l-176 -99 -172 103 c-94 57 -175 104
-180 104 -5 0 -86 -44 -181 -97 l-173 -98 -7 -65 c-3 -36 -6 -129 -6 -207 l0
-141 -169 -96 c-93 -53 -175 -96 -181 -96 -7 0 -80 41 -164 91 -83 51 -155 92
-161 92 -5 0 -88 -45 -184 -99 l-174 -98 -41 23 c-22 12 -101 59 -175 104
l-134 82 -1 209 -1 210 -170 102 -170 103 -40 -23 c-233 -133 -318 -177 -332
-172 -8 4 -87 50 -175 102 l-160 96 -46 -25 c-26 -14 -105 -59 -177 -99 l-130
-74 -7 -49 c-3 -28 -7 -120 -7 -206 l-1 -157 -181 -101 -180 -102 -170 103
-171 103 -1 209 -2 210 -169 102 c-93 57 -172 102 -175 100 -3 -2 -84 -47
-179 -100 l-173 -97 -173 105 c-96 58 -176 106 -178 106 -2 0 -79 -43 -173
-96z"/>
</g>
</svg>
