<?xml version="1.0" standalone="no"?>
<!DOCTYPE svg PUBLIC "-//W3C//DTD SVG 20010904//EN"
 "http://www.w3.org/TR/2001/REC-SVG-20010904/DTD/svg10.dtd">
<svg version="1.0" xmlns="http://www.w3.org/2000/svg"
 width="1280.000000pt" height="853.000000pt" viewBox="0 0 1280.000000 853.000000"
 preserveAspectRatio="xMidYMid meet">
<metadata>
Created by potrace 1.15, written by Peter Selinger 2001-2017
</metadata>
<g transform="translate(0.000000,853.000000) scale(0.100000,-0.100000)"
fill="#ffffff" stroke="none">
<path d="M9300 8485 c-152 -39 -197 -41 -252 -12 -28 14 -52 20 -60 16 -8 -4
-60 -17 -115 -28 -80 -17 -140 -21 -285 -21 -176 0 -185 -1 -243 -27 -105 -47
-285 -42 -525 12 -83 19 -79 20 -78 -16 1 -18 -7 -38 -18 -49 -21 -20 -145
-70 -175 -70 -10 0 -41 -13 -69 -30 -28 -16 -53 -30 -55 -30 -2 0 -28 -14 -56
-31 -29 -17 -107 -48 -173 -70 -66 -22 -146 -56 -178 -75 -39 -24 -66 -34 -81
-30 -19 4 -28 -6 -67 -80 -84 -158 -133 -187 -204 -120 -20 19 -36 43 -36 55
l0 22 -26 -20 c-33 -26 -99 -28 -136 -3 -38 25 -108 91 -108 102 0 5 -31 41
-69 79 -52 54 -74 84 -91 131 -13 34 -28 63 -34 65 -6 2 -56 11 -110 21 -113
20 -132 33 -142 94 -7 40 -7 40 -53 40 -40 0 -52 5 -94 44 l-48 45 -36 -15
c-23 -10 -49 -13 -74 -9 -21 4 -46 2 -58 -4 -21 -12 -340 -84 -431 -97 -30 -5
-154 -9 -275 -9 -209 0 -223 1 -275 24 -30 12 -69 37 -87 53 -36 35 -83 40
-165 19 -71 -19 -823 -11 -861 8 -27 14 -97 10 -257 -15 -14 -2 -70 -6 -125
-10 -78 -5 -128 -15 -225 -46 -101 -33 -144 -42 -226 -46 -88 -4 -105 -2 -142
17 -38 19 -57 21 -226 21 -203 0 -200 1 -189 -63 3 -19 0 -44 -7 -56 -14 -28
-68 -61 -98 -61 -25 0 -97 33 -125 58 -11 10 -45 17 -100 20 -52 3 -99 12
-127 25 -41 19 -63 20 -245 18 -146 -2 -202 -6 -207 -15 -4 -7 -26 -21 -49
-31 -39 -18 -43 -18 -89 -2 -74 26 -120 22 -177 -15 -36 -24 -54 -45 -68 -78
-13 -31 -55 -81 -134 -161 -64 -64 -125 -122 -136 -130 -26 -18 -89 -202 -72
-208 26 -9 67 -64 67 -90 -1 -66 -25 -119 -87 -188 -34 -37 -69 -76 -77 -85
-8 -9 -35 -20 -60 -23 -25 -4 -46 -12 -46 -19 -1 -19 -45 -63 -91 -88 -37 -21
-45 -31 -51 -64 -5 -21 -5 -160 -2 -309 6 -257 7 -272 30 -321 26 -58 40 -145
30 -196 -3 -19 -24 -62 -46 -96 -39 -59 -40 -64 -40 -146 0 -46 -7 -119 -15
-161 -17 -89 -11 -110 38 -147 54 -42 67 -80 67 -203 0 -90 -3 -113 -20 -140
-20 -33 -50 -165 -50 -221 0 -26 5 -32 28 -37 40 -8 86 -71 143 -199 28 -62
54 -117 59 -121 7 -8 29 -11 97 -16 13 0 32 -10 43 -21 17 -17 20 -33 20 -115
0 -82 3 -100 21 -124 17 -24 20 -36 14 -72 -9 -52 -46 -93 -79 -87 -22 4 -22
4 -8 -25 13 -26 13 -33 -3 -66 -10 -20 -17 -50 -16 -67 2 -27 -5 -38 -50 -75
-28 -25 -93 -103 -146 -177 l-95 -133 2 -175 c0 -101 5 -186 12 -202 6 -15 14
-61 18 -102 4 -41 12 -95 18 -120 42 -168 40 -197 -13 -230 l-35 -22 0 -146
c0 -151 -1 -158 -61 -349 -8 -24 -6 -39 5 -60 8 -16 22 -58 31 -93 16 -66 43
-135 70 -180 8 -14 22 -42 31 -63 19 -42 23 -43 119 -22 39 8 107 15 152 15
76 0 83 -2 102 -26 27 -34 26 -57 -2 -90 -21 -24 -22 -32 -13 -56 8 -23 7 -35
-9 -66 -25 -48 -149 -172 -211 -211 -65 -42 -164 -139 -164 -161 0 -10 -20
-59 -44 -108 -56 -111 -64 -167 -41 -262 12 -49 15 -89 11 -128 -5 -48 15
-270 26 -275 66 -33 81 -61 89 -169 12 -163 38 -195 174 -209 88 -9 122 -19
164 -47 34 -24 91 -39 171 -47 36 -4 99 -13 140 -20 41 -8 101 -20 132 -26 40
-7 73 -22 109 -49 28 -21 72 -43 97 -50 26 -6 72 -20 103 -31 31 -10 64 -19
74 -19 24 0 218 60 230 71 5 5 10 21 11 37 1 15 2 32 3 39 0 7 18 24 38 38 37
24 42 25 213 25 148 0 194 -4 295 -25 66 -14 151 -25 188 -25 159 0 586 -65
603 -91 13 -21 105 -8 216 32 62 22 121 43 131 46 27 8 81 -35 108 -86 l24
-46 120 1 c120 0 388 38 501 70 86 24 138 14 168 -31 13 -20 21 -22 60 -18 26
3 73 0 106 -6 57 -11 61 -11 97 14 33 22 48 25 125 25 85 0 87 0 111 -32 l25
-32 69 13 c43 9 97 11 144 7 180 -16 226 -17 258 -9 31 8 37 16 66 88 22 56
39 84 56 92 13 6 89 21 169 33 193 29 211 35 278 95 74 67 107 83 211 105 98
20 216 64 247 91 25 23 72 25 102 4 18 -13 29 -14 64 -4 43 11 121 6 142 -9 6
-5 38 -14 71 -21 33 -7 89 -21 124 -32 35 -10 84 -19 110 -19 29 0 57 -7 76
-20 17 -11 37 -24 45 -30 8 -5 58 -26 110 -46 52 -20 172 -74 265 -119 182
-88 259 -118 315 -121 19 -1 82 -16 139 -34 l104 -32 63 16 c84 21 127 20 175
-5 l40 -20 55 20 c50 19 77 21 310 21 l254 0 11 24 c16 34 68 69 102 69 40 0
81 -46 73 -79 -5 -17 -2 -24 8 -24 19 0 56 -48 56 -73 0 -18 5 -19 68 -12 58
6 70 11 90 36 36 44 73 59 148 59 58 0 70 3 90 25 33 35 85 34 114 -2 17 -22
30 -27 65 -28 31 0 51 -7 68 -23 20 -19 25 -20 30 -8 3 8 31 22 61 32 44 14
56 22 61 43 14 58 74 88 123 62 9 -5 32 -11 51 -13 33 -3 35 -1 84 82 36 63
51 100 56 142 9 70 31 98 78 98 41 0 73 -30 73 -69 0 -27 3 -29 49 -33 36 -4
63 -15 107 -46 83 -58 175 -92 254 -95 52 -2 83 -11 158 -45 91 -41 94 -42
203 -42 100 0 113 2 142 23 70 52 195 116 254 131 92 24 157 10 207 -43 27
-29 35 -31 96 -31 47 0 76 -6 104 -21 l38 -20 102 27 c55 15 112 27 126 26 14
-1 55 6 93 14 37 9 77 14 88 11 12 -3 59 11 116 35 125 54 143 77 143 180 0
86 13 111 83 155 l40 25 -6 137 c-3 75 -11 161 -16 191 -37 192 -43 286 -39
565 4 305 13 368 68 490 46 103 46 114 1 265 -14 46 -14 247 0 330 17 100 15
267 -5 319 -11 30 -16 76 -16 148 0 94 2 108 23 134 66 85 67 87 67 137 0 28
-4 62 -9 75 -5 14 -13 69 -16 123 -6 82 -11 105 -32 136 -28 41 -28 39 8 163
12 44 24 111 27 148 4 66 3 69 -32 107 -20 22 -36 48 -36 57 0 10 -6 35 -14
58 -8 22 -20 72 -27 112 -11 68 -10 77 15 170 43 156 51 209 51 353 0 117 -3
141 -21 180 -12 25 -24 61 -27 80 -3 19 -13 68 -22 109 -9 41 -17 100 -17 132
-1 51 -5 60 -30 79 -21 16 -28 29 -28 55 0 40 31 74 102 111 46 23 47 25 36
52 -6 15 -15 86 -20 157 -5 72 -11 164 -14 207 -5 68 -3 81 20 123 19 37 23
53 15 71 -12 32 -147 315 -160 334 -34 54 -47 94 -37 121 10 30 55 63 101 74
33 9 37 47 8 79 -36 41 -54 123 -56 261 -2 156 -4 161 -110 268 -68 68 -78 83
-82 121 -5 42 -5 43 90 137 107 107 128 149 132 273 2 39 4 77 4 84 1 7 10 20
20 29 11 9 17 21 14 27 -4 5 -6 42 -5 80 2 78 -3 106 -21 106 -7 0 -41 13 -76
29 -62 28 -66 28 -111 15 -26 -8 -73 -25 -104 -39 -31 -14 -64 -25 -74 -25
-35 0 -112 64 -140 117 l-27 53 -52 0 c-30 0 -71 -8 -95 -19 -62 -28 -166 -54
-218 -53 -116 1 -206 17 -248 45 l-42 27 -240 0 -240 0 0 -43 c0 -36 -6 -48
-32 -73 -41 -38 -97 -50 -270 -59 l-127 -7 -24 26 c-13 14 -35 26 -48 26 -35
0 -124 44 -150 74 -19 22 -31 26 -74 26 -28 0 -71 7 -96 15 -30 10 -117 18
-269 23 -128 5 -234 14 -245 20 -21 12 -113 31 -180 38 -23 2 -81 -7 -135 -21z"/>
<path d="M12560 7571 c0 -6 5 -13 10 -16 6 -3 10 1 10 9 0 9 -4 16 -10 16 -5
0 -10 -4 -10 -9z"/>
</g>
</svg>
