<svg width="106" height="112" viewBox="0 0 106 112" fill="none" xmlns="http://www.w3.org/2000/svg">
<path d="M59.5972 22.0698C60.3151 21.4464 61.4159 22.0824 61.2345 23.0158L58.0109 39.5939C57.7665 40.8505 58.3464 42.1237 59.4549 42.7641L74.6458 51.5411C75.4969 52.0328 75.2022 53.3287 74.2221 53.404L57.3176 54.7029C55.9715 54.8063 54.8603 55.7962 54.6026 57.1215L51.4451 73.3599C51.2611 74.3059 49.9773 74.4699 49.5614 73.6007L42.0021 57.8017C41.4675 56.6843 40.3011 56.0104 39.0661 56.1053L21.6033 57.4471C20.6425 57.5209 20.1434 56.3267 20.871 55.6949L33.3621 44.8492C34.3815 43.964 34.6841 42.507 34.1014 41.2891L26.7838 25.9952C26.3596 25.1086 27.3351 24.206 28.1862 24.6977L43.3771 33.4747C44.4856 34.1152 45.8782 33.9817 46.8449 33.1424L59.5972 22.0698Z" fill="white" stroke="black" stroke-width="2"/>
<path d="M86.5331 97.4878L87.5028 97.7319L86.5331 97.4878L84.9679 103.704L81.7001 97.6815C81.3415 97.0204 80.6423 96.6165 79.8905 96.6359L73.0405 96.813L77.6445 92.3522C78.2351 91.7801 78.4152 90.9048 78.0987 90.1459L75.5757 84.0967L81.6436 87.2165C82.3355 87.5722 83.171 87.4944 83.7853 87.017L88.9933 82.9698L88.0882 89.5031L89.0788 89.6403L88.0882 89.5031C87.9815 90.2738 88.3313 91.0364 88.9851 91.4582L94.7184 95.157L88.2176 95.9924C87.4021 96.0972 86.7338 96.6905 86.5331 97.4878Z" fill="#DB3D2B" stroke="black" stroke-width="2"/>
<path d="M96.1829 29.2881C96.5376 29.0094 97.0509 29.306 96.9867 29.7525L96.5991 32.4453C96.5156 33.026 96.7782 33.6021 97.2714 33.9198L99.5758 35.4046C99.9668 35.6566 99.832 36.2592 99.3709 36.3206L96.7961 36.663C96.1882 36.7439 95.6907 37.1867 95.5399 37.7811L94.9046 40.2854C94.7923 40.728 94.1942 40.8009 93.979 40.3981L92.6506 37.9122C92.3815 37.4087 91.85 37.1015 91.2794 37.1199L88.4623 37.2107C88.0058 37.2254 87.7702 36.6708 88.0976 36.3525L89.9499 34.5513C90.3896 34.1238 90.5247 33.4717 90.2911 32.9046L89.3019 30.5029C89.1247 30.0728 89.5795 29.655 89.993 29.8679L92.4303 31.1228C92.9519 31.3913 93.5822 31.3311 94.0436 30.9687L96.1829 29.2881Z" fill="#6C935E" stroke="black"/>
</svg>
