<svg width="115" height="115" viewBox="0 0 115 115" fill="none" xmlns="http://www.w3.org/2000/svg">
<path d="M81.1612 43.1435C81.8662 42.6126 82.8632 43.1886 82.7553 44.0646L80.6565 61.1048C80.5176 62.2322 81.0274 63.3413 81.9733 63.97L96.8175 73.8364C97.5824 74.3448 97.3148 75.529 96.4056 75.6591L79.3931 78.0932C78.2041 78.2633 77.2312 79.1261 76.9203 80.2862L72.5777 96.4868C72.3455 97.353 71.1784 97.4993 70.7397 96.7171L62.0201 81.1731C61.483 80.2158 60.466 79.6282 59.3684 79.6411L41.547 79.8502C40.6502 79.8607 40.194 78.7766 40.8285 78.1428L52.695 66.2894C53.5447 65.4406 53.8063 64.1668 53.3599 63.0518L46.9718 47.0973C46.6304 46.2447 47.5227 45.4214 48.3452 45.8301L64.3067 53.7626C65.3239 54.2681 66.5393 54.1558 67.4466 53.4725L81.1612 43.1435Z" fill="#FDE150" stroke="black" stroke-width="2" stroke-linejoin="round"/>
<path d="M36.4006 39.0884C36.5231 39.9256 35.6151 40.5271 34.8919 40.0878L28.2747 36.0678C27.376 35.5219 26.2572 35.4863 25.3256 35.974L18.3472 39.6276C17.5706 40.0341 16.684 39.3159 16.9204 38.4719L18.9549 31.2091C19.2519 30.149 18.9443 29.0113 18.1536 28.2453L12.7984 23.0569C12.1821 22.4598 12.5547 21.4148 13.4097 21.3423L21.3843 20.6659C22.403 20.5795 23.3076 19.9802 23.7845 19.0759L27.5174 11.9965C27.9176 11.2375 29.0252 11.302 29.3346 12.1023L32.0237 19.0569C32.4207 20.0838 33.3483 20.8106 34.4403 20.9506L41.9215 21.9097C42.7909 22.0211 43.1064 23.1177 42.4292 23.6742L36.3434 28.6752C35.531 29.3428 35.1274 30.3869 35.2796 31.4273L36.4006 39.0884Z" fill="#23C45C" stroke="black" stroke-width="2"/>
</svg>
